<svg width="341" height="259" viewBox="0 0 341 259" fill="none" xmlns="http://www.w3.org/2000/svg">
<g clip-path="url(#clip0_100_138)">
<path d="M315.505 235.417C304.332 243.922 290.72 252.537 277.338 256.6C273.48 257.806 269.499 258.575 265.469 258.895C261.702 259.197 257.91 258.903 254.235 258.023C244.577 255.622 235.618 251.416 226.95 246.503C224.118 244.896 221.319 243.214 218.536 241.496C213.993 238.69 209.495 235.785 204.985 232.95C204.31 232.521 203.639 232.099 202.964 231.682H202.96C201.871 230.999 200.78 230.325 199.686 229.661C199.493 229.542 199.301 229.428 199.104 229.309C197.038 228.057 194.935 226.834 192.798 225.64C192.536 225.496 192.274 225.349 192.012 225.206C187.876 222.913 183.625 220.833 179.276 218.975C176.419 217.773 173.526 216.689 170.604 215.764H170.6C169.483 215.412 168.361 215.081 167.236 214.778C163.861 213.853 160.422 213.18 156.947 212.765C152.159 212.186 147.316 212.225 142.537 212.88C142.214 212.925 141.895 212.97 141.571 213.023C128.639 215.093 116.836 222.072 103.846 223.717C103.425 223.77 103.007 223.819 102.586 223.856C102.406 223.872 102.226 223.893 102.046 223.905C98.2708 224.228 94.4718 224.135 90.7174 223.627C80.2282 222.244 70.0132 217.953 60.8173 212.545C39.3191 199.9 21.8849 180.464 11.2852 157.955C9.46501 154.098 7.84895 150.147 6.44374 146.12C2.51486 134.953 0.351213 123.242 0.0306988 111.409C-0.96379 70.3525 22.376 29.1611 59.0206 10.5924C95.6694 -7.97626 143.88 -1.8358 173.436 26.6902C191.365 43.9947 201.74 67.4439 215.233 88.3934C228.726 109.339 247.904 129.348 272.639 132.399C285.24 133.954 298.426 130.947 310.504 134.858C317.191 137.026 322.896 141.174 327.492 146.46C330.582 150.047 333.167 154.038 335.177 158.324C336.651 161.422 337.846 164.644 338.75 167.954C338.918 168.563 339.074 169.173 339.225 169.782C345.241 194.344 335.628 220.092 315.505 235.417Z" fill="#F2F2F2"/>
<path d="M114.249 190.953H75.7795C70.0159 190.953 65.3435 195.623 65.3435 201.384V201.384C65.3435 207.146 70.0159 211.816 75.7795 211.816H114.249C120.013 211.816 124.685 207.146 124.685 201.384C124.685 195.623 120.013 190.953 114.249 190.953Z" fill="#3F3D56"/>
<path d="M102.586 206.498V223.856C98.634 224.238 94.6513 224.161 90.7173 223.627V206.498H102.586Z" fill="#3F3D56"/>
<path d="M142.537 212.88C142.214 212.925 141.895 212.97 141.571 213.023C128.639 215.093 116.836 222.072 103.846 223.717C103.425 223.77 103.007 223.819 102.586 223.856C102.406 223.872 102.226 223.893 102.045 223.905C98.8738 220.8 95.702 217.494 92.7227 214.07C91.1061 212.217 89.5428 210.327 88.0735 208.413C84.2593 203.471 81.0262 198.39 78.8898 193.399C79.1067 191.006 77.6171 185.471 76.905 181.233L76.9009 181.228C76.598 179.449 76.4343 177.903 76.5857 176.908C77.4534 171.173 82.1393 171.832 83.5799 166.211C84.8794 165.133 86.263 164.16 87.7175 163.302C87.9589 163.159 88.2045 163.016 88.4582 162.873L104.092 152.073L110.067 157.931L119.16 166.849L129.015 176.508L120.65 184.955C120.65 184.955 127.64 193.01 135.813 203.749C138.007 206.633 140.286 209.714 142.537 212.88Z" fill="#2F2E41"/>
<path d="M277.337 206.498V256.6C273.479 257.805 269.498 258.575 265.469 258.895V206.498H277.337Z" fill="#3F3D56"/>
<path d="M292.685 202.407H254.215C248.451 202.407 243.779 207.078 243.779 212.839V212.839C243.779 218.6 248.451 223.271 254.215 223.271H292.685C298.448 223.271 303.12 218.6 303.12 212.839C303.12 207.078 298.448 202.407 292.685 202.407Z" fill="#3F3D56"/>
<path d="M199.104 229.309C197.038 228.057 194.935 226.834 192.798 225.639C192.536 225.496 192.274 225.349 192.012 225.206L193.42 224.604L197.218 222.972L197.255 222.956L197.295 223.095L199.104 229.309Z" fill="#FFB6B6"/>
<path d="M204.985 232.95C204.31 232.52 203.639 232.099 202.964 231.682H202.96C201.871 230.999 200.78 230.325 199.685 229.661C199.493 229.542 199.301 229.428 199.104 229.309C197.038 228.057 194.935 226.834 192.798 225.639C192.536 225.496 192.274 225.349 192.012 225.206C187.876 222.913 183.625 220.833 179.276 218.975C176.419 217.773 173.526 216.688 170.604 215.764H170.6L168.304 211.923L157.97 194.622L155.699 190.822C155.699 190.822 147.952 193.113 136.988 195.309C132.997 196.111 128.586 196.897 123.957 197.559C119.009 198.263 113.82 198.823 108.663 199.093C106.204 199.224 103.752 199.29 101.337 199.269C95.0963 199.228 89.1008 198.643 83.85 197.253C82.0984 195.608 76.819 193.37 73.0375 191.321H73.0334C71.4455 190.462 70.1277 189.639 69.4361 188.907C65.4499 184.693 68.8549 181.408 65.3108 176.81C65.2631 175.123 65.3493 173.435 65.5686 171.762C65.6055 171.484 65.6423 171.202 65.6873 170.915L66.8046 151.95L75.1042 150.853L87.7339 149.184L101.415 147.376L102.921 159.166C102.921 159.166 113.574 158.626 127.071 158.806C148.75 159.101 177.758 161.261 181.686 170.531C182.055 171.402 182.423 172.282 182.791 173.161C183.667 175.264 184.535 177.378 185.394 179.502C188.509 187.193 191.48 194.958 194.193 202.297C195.879 206.862 197.467 211.264 198.928 215.383C200.103 218.697 201.192 221.831 202.186 224.715C203.095 227.349 203.917 229.775 204.65 231.952C204.764 232.291 204.875 232.627 204.985 232.95Z" fill="#2F2E41"/>
<path d="M128.637 118.041L102.422 95.7861L119.477 78.5319L131.376 98.014L175.483 106.755C176.81 105.757 178.398 105.167 180.054 105.056C181.71 104.945 183.363 105.318 184.81 106.129C186.258 106.941 187.438 108.156 188.207 109.626C188.976 111.097 189.3 112.759 189.141 114.41C188.981 116.062 188.343 117.631 187.307 118.927C186.27 120.223 184.878 121.189 183.302 121.708C181.725 122.227 180.032 122.276 178.428 121.849C176.824 121.423 175.378 120.539 174.268 119.305L128.637 118.041Z" fill="#A0616A"/>
<path d="M79.2536 66.5375C76.224 76.3895 105.077 99.8866 105.077 99.8866C105.398 97.5214 121.757 117.917 122.87 116.07C126.033 110.82 129.514 97.8438 133.165 96.1854C135.254 95.2369 123.273 82.0539 123.273 82.0539C123.273 82.0539 117.162 73.9719 109.093 63.729C106.866 60.7908 103.931 58.4638 100.562 56.9645C97.1926 55.4651 93.4987 54.8423 89.8239 55.1539C89.8239 55.1539 82.2832 56.6855 79.2536 66.5375Z" fill="#6C63FF"/>
<path d="M92.0108 44.7273C101.803 44.7273 109.741 36.7922 109.741 27.0038C109.741 17.2154 101.803 9.28027 92.0108 9.28027C82.2185 9.28027 74.2802 17.2154 74.2802 27.0038C74.2802 36.7922 82.2185 44.7273 92.0108 44.7273Z" fill="#A0616A"/>
<path d="M100.876 56.4413C104.696 58.7113 106.981 62.8821 108.293 67.1262C110.721 74.9837 112.183 83.1077 112.645 91.3187L114.031 115.901L131.19 168.243C116.319 180.821 60.4216 171.102 60.4216 171.102C60.4216 171.102 58.7058 170.53 60.4216 168.815C62.1375 167.099 63.8079 168.619 62.0921 166.904C60.3762 165.189 61.5591 167.099 62.131 165.384C62.703 163.669 62.131 164.813 61.5591 164.241C60.9871 163.669 65.9868 158.523 65.9868 158.523L61.4112 128.479L55.6917 67.8757C62.5552 59.2999 76.3585 54.2445 76.3585 54.2445L79.925 47.8271L97.758 49.2532L100.876 56.4413Z" fill="#6C63FF"/>
<path d="M106.627 17.5875C108.005 18.615 109.026 20.0485 109.546 21.6864C109.746 19.0098 109.758 16.3224 109.584 13.6439C109.375 11.7618 108.049 11.3384 106.514 10.8478C105.128 10.4046 103.56 9.90399 103.139 8.07684C97.5651 2.65702 87.8629 2.93031 81.2229 4.82083C77.5692 5.86115 75.4669 7.19775 75.2788 7.98074L75.2398 8.14192L75.0914 8.21608C72.275 9.6237 71.7268 14.0687 71.7631 17.5496C71.8317 24.1079 74.097 31.5565 75.3732 32.1616C75.4407 32.1936 75.4578 32.1811 75.487 32.1567C77.4086 30.6216 79.753 32.2733 80.7833 33.1712C81.391 29.0951 83.3476 25.3402 86.3406 22.506C89.3337 19.6719 93.1905 17.9221 97.2951 17.536C98.6356 17.4065 99.9654 17.1836 101.275 16.869C101.939 16.6972 102.622 16.6077 103.308 16.6023C104.489 16.5844 105.647 16.9282 106.627 17.5875Z" fill="#2F2E41"/>
<path d="M84.2856 144.744L78.8618 141.967C78.5712 141.76 78.3648 141.455 78.2802 141.109C78.1957 140.762 78.2387 140.397 78.4013 140.08C78.564 139.762 78.8355 139.514 79.1662 139.38C79.4969 139.246 79.8648 139.235 80.2026 139.35L85.6264 142.127C85.917 142.334 86.1234 142.638 86.2079 142.985C86.2925 143.331 86.2495 143.697 86.0868 144.014C85.9242 144.332 85.6527 144.58 85.322 144.714C84.9913 144.848 84.6234 144.858 84.2856 144.744Z" fill="#6C63FF"/>
<path d="M66.0316 137.305L57.1094 104.102L80.952 99.5903L79.6698 122.38L110.997 154.624C112.656 154.557 114.298 154.973 115.724 155.822C117.15 156.671 118.298 157.917 119.028 159.407C119.758 160.897 120.039 162.567 119.836 164.214C119.632 165.86 118.954 167.412 117.884 168.681C116.814 169.949 115.397 170.878 113.808 171.356C112.218 171.833 110.524 171.838 108.932 171.37C107.339 170.901 105.918 169.98 104.84 168.718C103.763 167.455 103.076 165.907 102.863 164.262L66.0316 137.305Z" fill="#A0616A"/>
<path d="M54.6696 66.8746C46.5766 73.2612 56.964 108.985 56.964 108.985C58.5723 107.22 60.4411 133.295 62.4069 132.407C67.9938 129.884 78.2338 121.182 82.1815 121.891C84.4392 122.297 82.0739 104.644 82.0739 104.644C82.0739 104.644 81.6388 94.5229 80.8212 81.5111C80.6583 77.8283 79.5658 74.2464 77.6456 71.0991C75.7253 67.9518 73.0396 65.3412 69.8385 63.5105C69.8385 63.5105 62.7627 60.4881 54.6696 66.8746Z" fill="#6C63FF"/>
<path d="M335.177 158.323L11.2851 157.955C9.46487 154.098 7.84882 150.147 6.4436 146.12L327.492 146.46C330.581 150.046 333.167 154.038 335.177 158.323Z" fill="#3F3D56"/>
<path d="M232.017 244.159C230.343 244.969 228.654 245.75 226.95 246.503C224.118 244.895 221.319 243.214 218.536 241.496L228.857 236.963L232.017 244.159Z" fill="#FFB6B6"/>
<path d="M307.27 187.786C305.592 190.036 303.861 192.241 302.077 194.401C300.432 196.393 298.743 198.348 297.01 200.263C296.294 201.057 295.57 201.847 294.829 202.628C293.466 204.088 292.073 205.524 290.651 206.936C288.089 207.742 282.899 209.161 277.337 210.487C273.29 211.448 269.046 212.36 265.469 212.941C263.467 213.3 261.441 213.516 259.408 213.588C256.993 213.608 254.542 213.543 252.082 213.412C249.308 213.264 246.529 213.035 243.783 212.741C236.641 211.992 229.725 210.826 223.758 209.628C221.572 209.194 219.518 208.752 217.627 208.323C214.046 207.517 211.051 206.764 208.881 206.191C206.438 205.553 205.047 205.14 205.047 205.14L198.928 215.383L195.753 220.698L193.42 224.604L192.798 225.639C192.536 225.496 192.274 225.349 192.012 225.206C187.876 222.913 183.625 220.833 179.276 218.975C176.419 217.773 173.526 216.688 170.604 215.764H170.6C169.483 215.412 168.361 215.081 167.236 214.778C167.588 213.833 167.944 212.881 168.304 211.923C168.975 210.135 169.66 208.331 170.358 206.51C171.869 202.567 173.432 198.566 175.04 194.585C176.358 191.317 177.7 188.06 179.059 184.849C179.685 183.368 180.958 182.067 182.738 180.926C183.589 180.389 184.477 179.914 185.394 179.502C190.49 177.182 197.995 175.673 206.266 174.703C206.95 174.626 207.637 174.548 208.329 174.474C215.176 173.754 222.44 173.382 229.234 173.21C232.635 173.124 235.917 173.092 238.97 173.087C239.956 173.087 240.915 173.09 241.847 173.096H241.851C244.368 173.108 246.684 173.145 248.722 173.186C249.119 173.194 249.504 173.206 249.881 173.214H249.885C250.138 173.218 250.388 173.227 250.634 173.231C255.09 173.345 257.824 173.484 257.824 173.484L258.884 165.172L259.101 163.494L259.306 161.899V161.895L259.33 161.694L259.498 161.69L262.445 161.633L287.213 161.15L300.743 160.884L298.598 170.072L295.058 185.233C295.418 187.631 307.393 185.753 307.27 187.786Z" fill="#2F2E41"/>
<path d="M235.07 242.645C234.059 243.161 233.04 243.668 232.017 244.159C230.343 244.969 228.654 245.75 226.95 246.503C224.118 244.895 221.319 243.214 218.536 241.496C213.993 238.69 209.495 235.785 204.985 232.95C204.31 232.52 203.639 232.099 202.964 231.682H202.96C201.101 228.925 199.207 226.053 197.295 223.095C197.267 223.054 197.242 223.013 197.218 222.972C196.727 222.22 196.238 221.461 195.753 220.698C192.695 215.911 189.622 210.92 186.638 205.823L194.193 202.297L208.239 195.743L210.662 194.614L217.627 208.323L223.84 220.55L225.223 223.271L235.07 242.645Z" fill="#2F2E41"/>
<path d="M237.186 176.83L272.996 142.309L282.922 114.217L268.282 107.853C260.762 115.054 252.633 137.481 252.633 137.481L227.991 168.82C227.799 168.885 227.607 168.955 227.418 169.039C226.308 169.528 225.343 170.295 224.617 171.266C223.89 172.237 223.426 173.379 223.27 174.581C223.114 175.784 223.271 177.006 223.725 178.13C224.18 179.254 224.917 180.242 225.865 180.999C226.813 181.755 227.941 182.254 229.138 182.447C230.336 182.641 231.563 182.522 232.701 182.103C233.839 181.684 234.85 180.978 235.636 180.055C236.422 179.131 236.956 178.02 237.186 176.83Z" fill="#FFB8B8"/>
<path d="M264.162 110.99L282.732 116.883L282.802 116.871C289.714 115.714 295.449 104.43 299.043 95.1674C300.226 92.1122 300.204 88.7222 298.981 85.6827C297.759 82.6432 295.428 80.1809 292.459 78.7937C290.262 77.7851 287.827 77.411 285.429 77.7135C283.03 78.016 280.764 78.9831 278.886 80.5055L269.351 88.2943L264.162 110.99Z" fill="#6C63FF"/>
<path d="M307.196 188.2L307.304 188.056C313.098 180.375 305.174 161.354 303.976 158.595L309.363 157L308.424 146.746L307.972 142.174L312.16 138.198L312.174 138.097L315.055 117.604L318.824 104.041C320.245 98.9138 320.275 93.5009 318.911 88.3581C317.548 83.2153 314.839 78.5278 311.065 74.777L303.359 67.1298L294.128 52.6863L278.65 52.2869L273.085 62.1701C267.909 63.226 263.267 66.0635 259.969 70.1883C256.671 74.3131 254.925 79.4638 255.035 84.7432L255.559 111.054L250.006 143.653L249.85 149.575L244.399 155.325L245.407 161.138L241.329 162.761L239.334 171.022C238.572 171.975 233.54 178.332 233.495 180.104C233.488 180.37 233.678 180.633 234.092 180.929C237.349 183.258 255.552 188.305 263.745 185.271C272.471 182.042 306.673 188.107 307.018 188.168L307.196 188.2Z" fill="#001F61"/>
<path d="M285.037 47.8592C296.362 47.8592 305.543 38.6824 305.543 27.3622C305.543 16.042 296.362 6.86523 285.037 6.86523C273.713 6.86523 264.532 16.042 264.532 27.3622C264.532 38.6824 273.713 47.8592 285.037 47.8592Z" fill="#FFB8B8"/>
<path d="M282.536 48.1334C285.711 48.1829 288.885 47.9612 292.023 47.4707C295.133 46.8385 302.09 41.7421 304.03 38.6753C305.471 36.3967 306.392 32.8385 306.911 30.255C307.611 26.8362 307.584 23.3086 306.833 19.9007C306.082 16.4928 304.623 13.2806 302.551 10.4721C301.755 9.29737 300.656 8.35962 299.37 7.75804C299.256 7.7135 299.139 7.67403 299.02 7.64028C297.147 7.14754 295.464 6.10632 294.186 4.65028C293.939 4.35578 293.67 4.07949 293.383 3.82356C291.939 2.60585 290.228 1.74691 288.389 1.31694C285.42 0.522728 281.124 1.31109 275.619 3.6624C272.854 4.84375 269.83 4.41622 267.503 3.91172C267.372 3.88653 267.238 3.89593 267.112 3.93899C266.986 3.98205 266.874 4.05728 266.786 4.15718C265.796 5.08611 264.491 5.60608 263.134 5.61259C262.302 5.64909 261.429 6.80009 260.375 8.30103C260.136 8.64174 259.856 9.03939 259.655 9.28124L259.628 8.81658L259.158 9.33495C258.418 10.1497 257.897 11.1382 257.643 12.2084C257.388 13.2787 257.409 14.3958 257.703 15.4559C257.997 16.516 258.554 17.4845 259.323 18.2712C260.093 19.058 261.048 19.6373 262.102 19.9554C262.938 20.1779 263.795 20.3144 264.66 20.3629C265.183 20.4099 265.725 20.4586 266.244 20.5486C267.909 20.8896 269.458 21.6564 270.738 22.7742C272.019 23.892 272.988 25.3227 273.55 26.9264C273.683 27.2972 273.899 27.6324 274.183 27.9062C274.466 28.18 274.808 28.3852 275.183 28.5058C275.558 28.6264 275.956 28.6592 276.346 28.6017C276.735 28.5442 277.107 28.398 277.431 28.1743C277.972 27.7535 278.606 27.4697 279.28 27.347C279.954 27.2243 280.648 27.2664 281.302 27.4697C281.867 27.7839 282.308 28.283 282.549 28.8831C282.842 29.5517 283.327 30.1179 283.943 30.5095C286.051 31.5957 286.196 36.4074 285.439 40.4186C284.71 44.285 283.267 47.082 281.932 47.2203C280.904 47.3266 280.786 47.3996 280.712 47.5813L280.645 47.744L280.761 47.8962C281.329 48.102 281.934 48.1829 282.536 48.1334Z" fill="#2F2E41"/>
<path d="M269.254 104.793L261.348 89.0365C249.872 89.8201 227.095 103.084 227.095 103.084L184.001 112.217C182.725 111.726 181.341 111.581 179.991 111.794C178.64 112.008 177.369 112.574 176.306 113.435C175.244 114.295 174.427 115.421 173.938 116.697C173.448 117.974 173.304 119.357 173.52 120.707C173.735 122.057 174.303 123.327 175.165 124.388C176.027 125.449 177.154 126.264 178.432 126.752C179.71 127.239 181.093 127.382 182.444 127.165C183.794 126.948 185.063 126.379 186.124 125.516L240.942 121.588L269.254 104.793Z" fill="#FFB8B8"/>
<path d="M266.065 107.38L286.714 92.0414L290.351 78.9394C291.056 76.3646 291.026 73.6442 290.265 71.0855C289.504 68.5268 288.042 66.2318 286.045 64.4599C283.321 62.0762 279.794 60.8152 276.176 60.9319C272.558 61.0486 269.119 62.5342 266.555 65.0885C258.784 72.8413 249.922 83.6571 251.826 91.1571L251.845 91.2331L266.065 107.38Z" fill="#001F61"/>
<path d="M240.504 148.407H185.255V155.771H240.504V148.407Z" fill="white"/>
<path d="M99.3117 148.407H44.0623V155.771H99.3117V148.407Z" fill="white"/>
<path d="M105.763 112.995V148.056C105.763 148.503 105.941 148.931 106.257 149.247C106.573 149.563 107.002 149.741 107.449 149.741H159.426C159.873 149.741 160.302 149.563 160.618 149.247C160.934 148.931 161.111 148.503 161.112 148.056V112.995C161.111 112.549 160.933 112.121 160.617 111.806C160.301 111.49 159.873 111.313 159.426 111.312H107.449C107.002 111.313 106.574 111.49 106.258 111.806C105.942 112.121 105.764 112.549 105.763 112.995Z" fill="#3F3D56"/>
<path d="M106.982 113.432V147.624C106.983 147.862 107.078 148.091 107.247 148.26C107.416 148.429 107.645 148.524 107.883 148.524H158.993C159.232 148.524 159.461 148.429 159.63 148.26C159.799 148.091 159.894 147.862 159.894 147.624V113.432C159.894 113.193 159.799 112.963 159.631 112.794C159.462 112.625 159.232 112.53 158.993 112.529H107.883C107.644 112.53 107.415 112.625 107.246 112.794C107.077 112.963 106.983 113.193 106.982 113.432Z" fill="#001F61"/>
<path d="M104.676 154.894C104.771 155.013 104.892 155.109 105.03 155.175C105.168 155.241 105.319 155.275 105.471 155.274H161.127C161.279 155.274 161.429 155.24 161.567 155.174C161.704 155.109 161.825 155.014 161.921 154.895C162.017 154.777 162.085 154.639 162.121 154.491C162.157 154.343 162.159 154.189 162.128 154.041L161.264 149.939C161.228 149.771 161.151 149.616 161.04 149.486C160.928 149.356 160.786 149.256 160.626 149.195C160.51 149.149 160.387 149.126 160.263 149.126H106.332C106.208 149.126 106.084 149.149 105.969 149.195C105.809 149.256 105.667 149.356 105.555 149.486C105.444 149.616 105.367 149.771 105.331 149.939L104.467 154.041C104.436 154.189 104.439 154.343 104.475 154.491C104.511 154.638 104.58 154.776 104.676 154.894Z" fill="#2F2E41"/>
<path d="M158.353 150.893H159.668C159.778 150.893 159.868 150.804 159.868 150.693V150.065C159.868 149.955 159.778 149.865 159.668 149.865H158.353C158.243 149.865 158.153 149.955 158.153 150.065V150.693C158.153 150.804 158.243 150.893 158.353 150.893Z" fill="#3F3D56"/>
<path d="M154.925 150.893H156.239C156.35 150.893 156.439 150.804 156.439 150.693V150.065C156.439 149.955 156.35 149.865 156.239 149.865H154.925C154.815 149.865 154.725 149.955 154.725 150.065V150.693C154.725 150.804 154.815 150.893 154.925 150.893Z" fill="#3F3D56"/>
<path d="M151.497 150.893H152.811C152.921 150.893 153.011 150.804 153.011 150.693V150.065C153.011 149.955 152.921 149.865 152.811 149.865H151.497C151.386 149.865 151.297 149.955 151.297 150.065V150.693C151.297 150.804 151.386 150.893 151.497 150.893Z" fill="#3F3D56"/>
<path d="M148.068 150.893H149.383C149.493 150.893 149.583 150.804 149.583 150.693V150.065C149.583 149.955 149.493 149.865 149.383 149.865H148.068C147.958 149.865 147.868 149.955 147.868 150.065V150.693C147.868 150.804 147.958 150.893 148.068 150.893Z" fill="#3F3D56"/>
<path d="M144.64 150.893H145.955C146.065 150.893 146.154 150.804 146.154 150.693V150.065C146.154 149.955 146.065 149.865 145.955 149.865H144.64C144.53 149.865 144.44 149.955 144.44 150.065V150.693C144.44 150.804 144.53 150.893 144.64 150.893Z" fill="#3F3D56"/>
<path d="M141.212 150.893H142.526C142.636 150.893 142.726 150.804 142.726 150.693V150.065C142.726 149.955 142.636 149.865 142.526 149.865H141.212C141.101 149.865 141.012 149.955 141.012 150.065V150.693C141.012 150.804 141.101 150.893 141.212 150.893Z" fill="#3F3D56"/>
<path d="M137.783 150.893H139.098C139.208 150.893 139.298 150.804 139.298 150.693V150.065C139.298 149.955 139.208 149.865 139.098 149.865H137.783C137.673 149.865 137.584 149.955 137.584 150.065V150.693C137.584 150.804 137.673 150.893 137.783 150.893Z" fill="#3F3D56"/>
<path d="M134.355 150.893H135.67C135.78 150.893 135.869 150.804 135.869 150.693V150.065C135.869 149.955 135.78 149.865 135.67 149.865H134.355C134.245 149.865 134.155 149.955 134.155 150.065V150.693C134.155 150.804 134.245 150.893 134.355 150.893Z" fill="#3F3D56"/>
<path d="M130.927 150.893H132.241C132.352 150.893 132.441 150.804 132.441 150.693V150.065C132.441 149.955 132.352 149.865 132.241 149.865H130.927C130.816 149.865 130.727 149.955 130.727 150.065V150.693C130.727 150.804 130.816 150.893 130.927 150.893Z" fill="#3F3D56"/>
<path d="M127.498 150.893H128.813C128.923 150.893 129.013 150.804 129.013 150.693V150.065C129.013 149.955 128.923 149.865 128.813 149.865H127.498C127.388 149.865 127.299 149.955 127.299 150.065V150.693C127.299 150.804 127.388 150.893 127.498 150.893Z" fill="#3F3D56"/>
<path d="M124.07 150.893H125.385C125.495 150.893 125.584 150.804 125.584 150.693V150.065C125.584 149.955 125.495 149.865 125.385 149.865H124.07C123.96 149.865 123.87 149.955 123.87 150.065V150.693C123.87 150.804 123.96 150.893 124.07 150.893Z" fill="#3F3D56"/>
<path d="M120.642 150.893H121.956C122.067 150.893 122.156 150.804 122.156 150.693V150.065C122.156 149.955 122.067 149.865 121.956 149.865H120.642C120.531 149.865 120.442 149.955 120.442 150.065V150.693C120.442 150.804 120.531 150.893 120.642 150.893Z" fill="#3F3D56"/>
<path d="M117.213 150.893H118.528C118.638 150.893 118.728 150.804 118.728 150.693V150.065C118.728 149.955 118.638 149.865 118.528 149.865H117.213C117.103 149.865 117.014 149.955 117.014 150.065V150.693C117.014 150.804 117.103 150.893 117.213 150.893Z" fill="#3F3D56"/>
<path d="M113.785 150.893H115.1C115.21 150.893 115.299 150.804 115.299 150.693V150.065C115.299 149.955 115.21 149.865 115.1 149.865H113.785C113.675 149.865 113.585 149.955 113.585 150.065V150.693C113.585 150.804 113.675 150.893 113.785 150.893Z" fill="#3F3D56"/>
<path d="M110.357 150.893H111.671C111.782 150.893 111.871 150.804 111.871 150.693V150.065C111.871 149.955 111.782 149.865 111.671 149.865H110.357C110.246 149.865 110.157 149.955 110.157 150.065V150.693C110.157 150.804 110.246 150.893 110.357 150.893Z" fill="#3F3D56"/>
<path d="M106.928 150.893H108.243C108.353 150.893 108.443 150.804 108.443 150.693V150.065C108.443 149.955 108.353 149.865 108.243 149.865H106.928C106.818 149.865 106.729 149.955 106.729 150.065V150.693C106.729 150.804 106.818 150.893 106.928 150.893Z" fill="#3F3D56"/>
<path d="M158.394 152.607H159.708C159.819 152.607 159.908 152.517 159.908 152.407V151.778C159.908 151.668 159.819 151.579 159.708 151.579H158.394C158.283 151.579 158.194 151.668 158.194 151.778V152.407C158.194 152.517 158.283 152.607 158.394 152.607Z" fill="#3F3D56"/>
<path d="M154.965 152.607H156.28C156.39 152.607 156.48 152.517 156.48 152.407V151.778C156.48 151.668 156.39 151.579 156.28 151.579H154.965C154.855 151.579 154.766 151.668 154.766 151.778V152.407C154.766 152.517 154.855 152.607 154.965 152.607Z" fill="#3F3D56"/>
<path d="M151.537 152.607H152.852C152.962 152.607 153.051 152.517 153.051 152.407V151.778C153.051 151.668 152.962 151.579 152.852 151.579H151.537C151.427 151.579 151.337 151.668 151.337 151.778V152.407C151.337 152.517 151.427 152.607 151.537 152.607Z" fill="#3F3D56"/>
<path d="M148.109 152.607H149.423C149.534 152.607 149.623 152.517 149.623 152.407V151.778C149.623 151.668 149.534 151.579 149.423 151.579H148.109C147.998 151.579 147.909 151.668 147.909 151.778V152.407C147.909 152.517 147.998 152.607 148.109 152.607Z" fill="#3F3D56"/>
<path d="M144.68 152.607H145.995C146.105 152.607 146.195 152.517 146.195 152.407V151.778C146.195 151.668 146.105 151.579 145.995 151.579H144.68C144.57 151.579 144.481 151.668 144.481 151.778V152.407C144.481 152.517 144.57 152.607 144.68 152.607Z" fill="#3F3D56"/>
<path d="M141.252 152.607H142.567C142.677 152.607 142.766 152.517 142.766 152.407V151.778C142.766 151.668 142.677 151.579 142.567 151.579H141.252C141.142 151.579 141.052 151.668 141.052 151.778V152.407C141.052 152.517 141.142 152.607 141.252 152.607Z" fill="#3F3D56"/>
<path d="M137.824 152.607H139.138C139.249 152.607 139.338 152.517 139.338 152.407V151.778C139.338 151.668 139.249 151.579 139.138 151.579H137.824C137.713 151.579 137.624 151.668 137.624 151.778V152.407C137.624 152.517 137.713 152.607 137.824 152.607Z" fill="#3F3D56"/>
<path d="M134.395 152.607H135.71C135.82 152.607 135.91 152.517 135.91 152.407V151.778C135.91 151.668 135.82 151.579 135.71 151.579H134.395C134.285 151.579 134.196 151.668 134.196 151.778V152.407C134.196 152.517 134.285 152.607 134.395 152.607Z" fill="#3F3D56"/>
<path d="M130.967 152.607H132.282C132.392 152.607 132.482 152.517 132.482 152.407V151.778C132.482 151.668 132.392 151.579 132.282 151.579H130.967C130.857 151.579 130.767 151.668 130.767 151.778V152.407C130.767 152.517 130.857 152.607 130.967 152.607Z" fill="#3F3D56"/>
<path d="M127.539 152.607H128.853C128.964 152.607 129.053 152.517 129.053 152.407V151.778C129.053 151.668 128.964 151.579 128.853 151.579H127.539C127.429 151.579 127.339 151.668 127.339 151.778V152.407C127.339 152.517 127.429 152.607 127.539 152.607Z" fill="#3F3D56"/>
<path d="M124.111 152.607H125.425C125.535 152.607 125.625 152.517 125.625 152.407V151.778C125.625 151.668 125.535 151.579 125.425 151.579H124.111C124 151.579 123.911 151.668 123.911 151.778V152.407C123.911 152.517 124 152.607 124.111 152.607Z" fill="#3F3D56"/>
<path d="M120.682 152.607H121.997C122.107 152.607 122.197 152.517 122.197 152.407V151.778C122.197 151.668 122.107 151.579 121.997 151.579H120.682C120.572 151.579 120.482 151.668 120.482 151.778V152.407C120.482 152.517 120.572 152.607 120.682 152.607Z" fill="#3F3D56"/>
<path d="M117.254 152.607H118.568C118.679 152.607 118.768 152.517 118.768 152.407V151.778C118.768 151.668 118.679 151.579 118.568 151.579H117.254C117.144 151.579 117.054 151.668 117.054 151.778V152.407C117.054 152.517 117.144 152.607 117.254 152.607Z" fill="#3F3D56"/>
<path d="M113.826 152.607H115.14C115.25 152.607 115.34 152.517 115.34 152.407V151.778C115.34 151.668 115.25 151.579 115.14 151.579H113.826C113.715 151.579 113.626 151.668 113.626 151.778V152.407C113.626 152.517 113.715 152.607 113.826 152.607Z" fill="#3F3D56"/>
<path d="M110.397 152.607H111.712C111.822 152.607 111.912 152.517 111.912 152.407V151.778C111.912 151.668 111.822 151.579 111.712 151.579H110.397C110.287 151.579 110.197 151.668 110.197 151.778V152.407C110.197 152.517 110.287 152.607 110.397 152.607Z" fill="#3F3D56"/>
<path d="M106.969 152.607H108.284C108.394 152.607 108.483 152.517 108.483 152.407V151.778C108.483 151.668 108.394 151.579 108.284 151.579H106.969C106.859 151.579 106.769 151.668 106.769 151.778V152.407C106.769 152.517 106.859 152.607 106.969 152.607Z" fill="#3F3D56"/>
<path d="M129.939 154.663H143.252C143.363 154.663 143.452 154.573 143.452 154.463V153.834C143.452 153.724 143.363 153.635 143.252 153.635H129.939C129.828 153.635 129.739 153.724 129.739 153.834V154.463C129.739 154.573 129.828 154.663 129.939 154.663Z" fill="#3F3D56"/>
</g>
<defs>
<clipPath id="clip0_100_138">
<rect width="341" height="259" fill="white"/>
</clipPath>
</defs>
</svg>
