<svg width="32" height="31" viewBox="0 0 32 31" fill="none" xmlns="http://www.w3.org/2000/svg">
<path d="M23.625 24.8125C23.625 26.3661 22.3661 27.625 20.8125 27.625H6.1875C4.63444 27.625 3.375 26.3661 3.375 24.8125V10.1875C3.375 8.63387 4.63444 7.375 6.1875 7.375H20.8125C22.3661 7.375 23.625 8.63387 23.625 10.1875V24.8125Z" fill="#4C64D9"/>
<path d="M6.75 14.6875H9.5625V24.25H6.75V14.6875ZM8.14781 13.5625H8.13206C7.29281 13.5625 6.75 12.937 6.75 12.1557C6.75 11.3575 7.30969 10.75 8.16412 10.75C9.01969 10.75 9.54675 11.3575 9.5625 12.1557C9.5625 12.9364 9.01969 13.5625 8.14781 13.5625ZM20.25 24.25H17.4375V19.1318C17.4375 17.8954 16.7484 17.0517 15.642 17.0517C14.7977 17.0517 14.3409 17.6209 14.1193 18.1711C14.0383 18.3679 14.0625 18.9124 14.0625 19.1875V24.25H11.25V14.6875H14.0625V16.159C14.4681 15.5312 15.1031 14.6875 16.7276 14.6875C18.7403 14.6875 20.2494 15.9531 20.2494 18.7791L20.25 24.25Z" fill="white"/>
<path d="M28 1L31 9L28 7.31579L25 9L28 1Z" fill="#4C64D9" stroke="#4C64D9" stroke-linecap="round" stroke-linejoin="round"/>
</svg>
