<svg width="200" height="44" viewBox="0 0 200 44" fill="none" xmlns="http://www.w3.org/2000/svg">
<path d="M58.84 31.24C57.6133 31.24 56.64 31.02 55.92 30.58C55.2133 30.1267 54.7133 29.5 54.42 28.7C54.1267 27.8867 53.98 26.9333 53.98 25.84V20C53.98 18.88 54.1267 17.92 54.42 17.12C54.7133 16.3067 55.2133 15.68 55.92 15.24C56.64 14.8 57.6133 14.58 58.84 14.58C60.04 14.58 60.9733 14.78 61.64 15.18C62.32 15.5667 62.8 16.1133 63.08 16.82C63.36 17.5267 63.5 18.34 63.5 19.26V20.66H60V19.04C60 18.72 59.98 18.4133 59.94 18.12C59.9133 17.8267 59.82 17.5867 59.66 17.4C59.5 17.2 59.2267 17.1 58.84 17.1C58.4667 17.1 58.1867 17.2 58 17.4C57.8267 17.6 57.7133 17.8533 57.66 18.16C57.62 18.4533 57.6 18.7667 57.6 19.1V26.72C57.6 27.08 57.6267 27.4133 57.68 27.72C57.7467 28.0133 57.8667 28.2533 58.04 28.44C58.2267 28.6133 58.4933 28.7 58.84 28.7C59.2133 28.7 59.48 28.6067 59.64 28.42C59.8 28.22 59.9 27.9667 59.94 27.66C59.98 27.3533 60 27.04 60 26.72V25.02H63.5V26.42C63.5 27.34 63.36 28.1667 63.08 28.9C62.8133 29.62 62.34 30.1933 61.66 30.62C60.9933 31.0333 60.0533 31.24 58.84 31.24ZM70.1095 31.24C68.8962 31.24 67.9362 31.0267 67.2295 30.6C66.5229 30.1733 66.0162 29.56 65.7095 28.76C65.4029 27.96 65.2495 27.0067 65.2495 25.9V19.88C65.2495 18.76 65.4029 17.8067 65.7095 17.02C66.0162 16.2333 66.5229 15.6333 67.2295 15.22C67.9362 14.7933 68.8962 14.58 70.1095 14.58C71.3362 14.58 72.3029 14.7933 73.0095 15.22C73.7295 15.6333 74.2429 16.2333 74.5495 17.02C74.8562 17.8067 75.0095 18.76 75.0095 19.88V25.9C75.0095 27.0067 74.8562 27.96 74.5495 28.76C74.2429 29.56 73.7295 30.1733 73.0095 30.6C72.3029 31.0267 71.3362 31.24 70.1095 31.24ZM70.1095 28.7C70.4829 28.7 70.7562 28.6067 70.9295 28.42C71.1029 28.2333 71.2162 27.9933 71.2695 27.7C71.3229 27.4067 71.3495 27.1067 71.3495 26.8V19C71.3495 18.68 71.3229 18.38 71.2695 18.1C71.2162 17.8067 71.1029 17.5667 70.9295 17.38C70.7562 17.1933 70.4829 17.1 70.1095 17.1C69.7629 17.1 69.5029 17.1933 69.3295 17.38C69.1562 17.5667 69.0429 17.8067 68.9895 18.1C68.9362 18.38 68.9095 18.68 68.9095 19V26.8C68.9095 27.1067 68.9295 27.4067 68.9695 27.7C69.0229 27.9933 69.1295 28.2333 69.2895 28.42C69.4629 28.6067 69.7362 28.7 70.1095 28.7ZM77.1883 31V14.8H79.7083L83.0283 22.6V14.8H85.9883V31H83.5683L80.2483 22.6V31H77.1883ZM89.8592 31V17.46H87.4192V14.8H95.8792V17.46H93.4592V31H89.8592ZM97.3055 31V14.8H101.765C102.859 14.8 103.805 14.92 104.605 15.16C105.405 15.4 106.025 15.8333 106.465 16.46C106.919 17.0733 107.145 17.9467 107.145 19.08C107.145 19.7467 107.092 20.34 106.985 20.86C106.879 21.38 106.679 21.8333 106.385 22.22C106.105 22.5933 105.699 22.9067 105.165 23.16L107.385 31H103.685L101.905 23.74H100.885V31H97.3055ZM100.885 21.68H101.885C102.392 21.68 102.785 21.5933 103.065 21.42C103.345 21.2333 103.539 20.9733 103.645 20.64C103.765 20.2933 103.825 19.88 103.825 19.4C103.825 18.7067 103.699 18.1667 103.445 17.78C103.192 17.3933 102.725 17.2 102.045 17.2H100.885V21.68ZM108.518 31L111.578 14.8H115.658L118.678 31H115.378L114.838 27.58H112.458L111.898 31H108.518ZM112.778 25.44H114.498L113.638 19.12L112.778 25.44ZM120.914 31V17.46H118.474V14.8H126.934V17.46H124.514V31H120.914ZM126.858 31L129.918 14.8H133.998L137.018 31H133.718L133.178 27.58H130.798L130.238 31H126.858ZM131.118 25.44H132.838L131.978 19.12L131.118 25.44Z" fill="white"/>
<path d="M141.22 31L141.52 14.8H143.74L146.6 27.94L149.48 14.8H151.68L151.98 31H150.16L149.98 19.24L147.24 31H145.96L143.24 19.24L143.06 31H141.22ZM153.583 31L157.023 14.8H159.203L162.663 31H160.523L159.783 26.92H156.483L155.703 31H153.583ZM156.783 25.3H159.483L158.123 18L156.783 25.3ZM168.289 31.18C167.142 31.18 166.249 30.94 165.609 30.46C164.982 29.98 164.542 29.3333 164.289 28.52C164.049 27.7067 163.929 26.8 163.929 25.8V20.08C163.929 18.9867 164.049 18.0333 164.289 17.22C164.542 16.4067 164.982 15.78 165.609 15.34C166.249 14.8867 167.142 14.66 168.289 14.66C169.302 14.66 170.102 14.8467 170.689 15.22C171.289 15.5933 171.715 16.1267 171.969 16.82C172.235 17.5133 172.369 18.3467 172.369 19.32V20.6H170.229V19.46C170.229 18.86 170.195 18.3333 170.129 17.88C170.075 17.4133 169.915 17.0533 169.649 16.8C169.382 16.5467 168.935 16.42 168.309 16.42C167.669 16.42 167.202 16.56 166.909 16.84C166.615 17.1067 166.422 17.4933 166.329 18C166.249 18.4933 166.209 19.0733 166.209 19.74V26.16C166.209 26.9733 166.275 27.62 166.409 28.1C166.542 28.5667 166.762 28.9 167.069 29.1C167.375 29.3 167.789 29.4 168.309 29.4C168.922 29.4 169.362 29.2667 169.629 29C169.895 28.72 170.062 28.34 170.129 27.86C170.195 27.38 170.229 26.82 170.229 26.18V24.98H172.369V26.18C172.369 27.1667 172.249 28.04 172.009 28.8C171.769 29.5467 171.355 30.1333 170.769 30.56C170.182 30.9733 169.355 31.18 168.289 31.18ZM174.642 31V14.8H176.862V31H174.642ZM183.543 31.18C182.396 31.18 181.503 30.94 180.863 30.46C180.236 29.98 179.796 29.3333 179.543 28.52C179.303 27.7067 179.183 26.8 179.183 25.8V20.08C179.183 18.9867 179.303 18.0333 179.543 17.22C179.796 16.4067 180.236 15.78 180.863 15.34C181.503 14.8867 182.396 14.66 183.543 14.66C184.556 14.66 185.356 14.8467 185.943 15.22C186.543 15.5933 186.969 16.1267 187.223 16.82C187.489 17.5133 187.623 18.3467 187.623 19.32V20.6H185.483V19.46C185.483 18.86 185.449 18.3333 185.383 17.88C185.329 17.4133 185.169 17.0533 184.903 16.8C184.636 16.5467 184.189 16.42 183.563 16.42C182.923 16.42 182.456 16.56 182.163 16.84C181.869 17.1067 181.676 17.4933 181.583 18C181.503 18.4933 181.463 19.0733 181.463 19.74V26.16C181.463 26.9733 181.529 27.62 181.663 28.1C181.796 28.5667 182.016 28.9 182.323 29.1C182.629 29.3 183.043 29.4 183.563 29.4C184.176 29.4 184.616 29.2667 184.883 29C185.149 28.72 185.316 28.34 185.383 27.86C185.449 27.38 185.483 26.82 185.483 26.18V24.98H187.623V26.18C187.623 27.1667 187.503 28.04 187.263 28.8C187.023 29.5467 186.609 30.1333 186.023 30.56C185.436 30.9733 184.609 31.18 183.543 31.18ZM183.643 35.7C183.429 35.7 183.209 35.68 182.983 35.64C182.756 35.6 182.529 35.5533 182.303 35.5V34.42C182.476 34.4733 182.649 34.5067 182.823 34.52C182.996 34.5467 183.163 34.56 183.323 34.56C183.669 34.56 183.956 34.5 184.183 34.38C184.423 34.26 184.543 34.06 184.543 33.78C184.543 33.54 184.476 33.3467 184.343 33.2C184.209 33.0667 184.016 32.9533 183.763 32.86C183.509 32.78 183.203 32.7133 182.843 32.66V31H183.923V32.12C184.589 32.12 185.123 32.2733 185.523 32.58C185.936 32.8867 186.143 33.3067 186.143 33.84C186.143 34.2667 186.029 34.6133 185.803 34.88C185.589 35.16 185.289 35.3667 184.903 35.5C184.529 35.6333 184.109 35.7 183.643 35.7ZM193.916 31.18C192.822 31.18 191.949 30.9667 191.296 30.54C190.642 30.1133 190.176 29.5067 189.896 28.72C189.616 27.92 189.476 26.9867 189.476 25.92V19.78C189.476 18.7133 189.616 17.8 189.896 17.04C190.189 16.2667 190.656 15.68 191.296 15.28C191.949 14.8667 192.822 14.66 193.916 14.66C195.009 14.66 195.876 14.8667 196.516 15.28C197.156 15.6933 197.616 16.28 197.896 17.04C198.189 17.8 198.336 18.7133 198.336 19.78V25.94C198.336 26.9933 198.189 27.9133 197.896 28.7C197.616 29.4867 197.156 30.1 196.516 30.54C195.876 30.9667 195.009 31.18 193.916 31.18ZM193.916 29.4C194.516 29.4 194.969 29.28 195.276 29.04C195.582 28.7867 195.789 28.44 195.896 28C196.002 27.5467 196.056 27.02 196.056 26.42V19.32C196.056 18.72 196.002 18.2067 195.896 17.78C195.789 17.34 195.582 17.0067 195.276 16.78C194.969 16.54 194.516 16.42 193.916 16.42C193.316 16.42 192.856 16.54 192.536 16.78C192.229 17.0067 192.022 17.34 191.916 17.78C191.809 18.2067 191.756 18.72 191.756 19.32V26.42C191.756 27.02 191.809 27.5467 191.916 28C192.022 28.44 192.229 28.7867 192.536 29.04C192.856 29.28 193.316 29.4 193.916 29.4Z" fill="white" fill-opacity="0.8"/>
<rect width="46" height="44" rx="22" fill="white"/>
<path d="M15.84 31.24C14.6133 31.24 13.64 31.02 12.92 30.58C12.2133 30.1267 11.7133 29.5 11.42 28.7C11.1267 27.8867 10.98 26.9333 10.98 25.84V20C10.98 18.88 11.1267 17.92 11.42 17.12C11.7133 16.3067 12.2133 15.68 12.92 15.24C13.64 14.8 14.6133 14.58 15.84 14.58C17.04 14.58 17.9733 14.78 18.64 15.18C19.32 15.5667 19.8 16.1133 20.08 16.82C20.36 17.5267 20.5 18.34 20.5 19.26V20.66H17V19.04C17 18.72 16.98 18.4133 16.94 18.12C16.9133 17.8267 16.82 17.5867 16.66 17.4C16.5 17.2 16.2267 17.1 15.84 17.1C15.4667 17.1 15.1867 17.2 15 17.4C14.8267 17.6 14.7133 17.8533 14.66 18.16C14.62 18.4533 14.6 18.7667 14.6 19.1V26.72C14.6 27.08 14.6267 27.4133 14.68 27.72C14.7467 28.0133 14.8667 28.2533 15.04 28.44C15.2267 28.6133 15.4933 28.7 15.84 28.7C16.2133 28.7 16.48 28.6067 16.64 28.42C16.8 28.22 16.9 27.9667 16.94 27.66C16.98 27.3533 17 27.04 17 26.72V25.02H20.5V26.42C20.5 27.34 20.36 28.1667 20.08 28.9C19.8133 29.62 19.34 30.1933 18.66 30.62C17.9933 31.0333 17.0533 31.24 15.84 31.24ZM22.4095 31L22.6895 14.8H26.5295L28.3095 24.22L30.2295 14.8H33.9295L34.2095 31H31.6695L31.3695 20.22L29.4895 31H27.2295L25.2295 20.14L24.9895 31H22.4095Z" fill="#001F61"/>
</svg>
