<svg width="171" height="40" viewBox="0 0 171 40" fill="none" xmlns="http://www.w3.org/2000/svg">
<path d="M51.84 29.24C50.6133 29.24 49.64 29.02 48.92 28.58C48.2133 28.1267 47.7133 27.5 47.42 26.7C47.1267 25.8867 46.98 24.9333 46.98 23.84V18C46.98 16.88 47.1267 15.92 47.42 15.12C47.7133 14.3067 48.2133 13.68 48.92 13.24C49.64 12.8 50.6133 12.58 51.84 12.58C53.04 12.58 53.9733 12.78 54.64 13.18C55.32 13.5667 55.8 14.1133 56.08 14.82C56.36 15.5267 56.5 16.34 56.5 17.26V18.66H53V17.04C53 16.72 52.98 16.4133 52.94 16.12C52.9133 15.8267 52.82 15.5867 52.66 15.4C52.5 15.2 52.2267 15.1 51.84 15.1C51.4667 15.1 51.1867 15.2 51 15.4C50.8267 15.6 50.7133 15.8533 50.66 16.16C50.62 16.4533 50.6 16.7667 50.6 17.1V24.72C50.6 25.08 50.6267 25.4133 50.68 25.72C50.7467 26.0133 50.8667 26.2533 51.04 26.44C51.2267 26.6133 51.4933 26.7 51.84 26.7C52.2133 26.7 52.48 26.6067 52.64 26.42C52.8 26.22 52.9 25.9667 52.94 25.66C52.98 25.3533 53 25.04 53 24.72V23.02H56.5V24.42C56.5 25.34 56.36 26.1667 56.08 26.9C55.8133 27.62 55.34 28.1933 54.66 28.62C53.9933 29.0333 53.0533 29.24 51.84 29.24ZM63.1095 29.24C61.8962 29.24 60.9362 29.0267 60.2295 28.6C59.5229 28.1733 59.0162 27.56 58.7095 26.76C58.4029 25.96 58.2495 25.0067 58.2495 23.9V17.88C58.2495 16.76 58.4029 15.8067 58.7095 15.02C59.0162 14.2333 59.5229 13.6333 60.2295 13.22C60.9362 12.7933 61.8962 12.58 63.1095 12.58C64.3362 12.58 65.3029 12.7933 66.0095 13.22C66.7295 13.6333 67.2429 14.2333 67.5495 15.02C67.8562 15.8067 68.0095 16.76 68.0095 17.88V23.9C68.0095 25.0067 67.8562 25.96 67.5495 26.76C67.2429 27.56 66.7295 28.1733 66.0095 28.6C65.3029 29.0267 64.3362 29.24 63.1095 29.24ZM63.1095 26.7C63.4829 26.7 63.7562 26.6067 63.9295 26.42C64.1029 26.2333 64.2162 25.9933 64.2695 25.7C64.3229 25.4067 64.3495 25.1067 64.3495 24.8V17C64.3495 16.68 64.3229 16.38 64.2695 16.1C64.2162 15.8067 64.1029 15.5667 63.9295 15.38C63.7562 15.1933 63.4829 15.1 63.1095 15.1C62.7629 15.1 62.5029 15.1933 62.3295 15.38C62.1562 15.5667 62.0429 15.8067 61.9895 16.1C61.9362 16.38 61.9095 16.68 61.9095 17V24.8C61.9095 25.1067 61.9295 25.4067 61.9695 25.7C62.0229 25.9933 62.1295 26.2333 62.2895 26.42C62.4629 26.6067 62.7362 26.7 63.1095 26.7ZM70.1883 29V12.8H72.7083L76.0283 20.6V12.8H78.9883V29H76.5683L73.2483 20.6V29H70.1883ZM82.8592 29V15.46H80.4192V12.8H88.8792V15.46H86.4592V29H82.8592ZM90.3055 29V12.8H94.7655C95.8588 12.8 96.8055 12.92 97.6055 13.16C98.4055 13.4 99.0255 13.8333 99.4655 14.46C99.9188 15.0733 100.145 15.9467 100.145 17.08C100.145 17.7467 100.092 18.34 99.9855 18.86C99.8788 19.38 99.6788 19.8333 99.3855 20.22C99.1055 20.5933 98.6988 20.9067 98.1655 21.16L100.385 29H96.6855L94.9055 21.74H93.8855V29H90.3055ZM93.8855 19.68H94.8855C95.3921 19.68 95.7855 19.5933 96.0655 19.42C96.3455 19.2333 96.5388 18.9733 96.6455 18.64C96.7655 18.2933 96.8255 17.88 96.8255 17.4C96.8255 16.7067 96.6988 16.1667 96.4455 15.78C96.1921 15.3933 95.7255 15.2 95.0455 15.2H93.8855V19.68ZM101.518 29L104.578 12.8H108.658L111.678 29H108.378L107.838 25.58H105.458L104.898 29H101.518ZM105.778 23.44H107.498L106.638 17.12L105.778 23.44ZM113.914 29V15.46H111.474V12.8H119.934V15.46H117.514V29H113.914ZM119.858 29L122.918 12.8H126.998L130.018 29H126.718L126.178 25.58H123.798L123.238 29H119.858ZM124.118 23.44H125.838L124.978 17.12L124.118 23.44Z" fill="#0034A4"/>
<path d="M134.14 29.38V27.76C134.633 27.76 135.033 27.7267 135.34 27.66C135.647 27.5933 135.88 27.4733 136.04 27.3C136.213 27.1267 136.333 26.88 136.4 26.56C136.467 26.2267 136.5 25.8067 136.5 25.3V12.8H138.74V25.34C138.74 26.2733 138.64 27.04 138.44 27.64C138.24 28.2267 137.887 28.6667 137.38 28.96C136.873 29.24 136.153 29.38 135.22 29.38H134.14ZM145.416 29.18C144.322 29.18 143.449 28.9667 142.796 28.54C142.142 28.1133 141.676 27.5067 141.396 26.72C141.116 25.92 140.976 24.9867 140.976 23.92V17.78C140.976 16.7133 141.116 15.8 141.396 15.04C141.689 14.2667 142.156 13.68 142.796 13.28C143.449 12.8667 144.322 12.66 145.416 12.66C146.509 12.66 147.376 12.8667 148.016 13.28C148.656 13.6933 149.116 14.28 149.396 15.04C149.689 15.8 149.836 16.7133 149.836 17.78V23.94C149.836 24.9933 149.689 25.9133 149.396 26.7C149.116 27.4867 148.656 28.1 148.016 28.54C147.376 28.9667 146.509 29.18 145.416 29.18ZM145.416 27.4C146.016 27.4 146.469 27.28 146.776 27.04C147.082 26.7867 147.289 26.44 147.396 26C147.502 25.5467 147.556 25.02 147.556 24.42V17.32C147.556 16.72 147.502 16.2067 147.396 15.78C147.289 15.34 147.082 15.0067 146.776 14.78C146.469 14.54 146.016 14.42 145.416 14.42C144.816 14.42 144.356 14.54 144.036 14.78C143.729 15.0067 143.522 15.34 143.416 15.78C143.309 16.2067 143.256 16.72 143.256 17.32V24.42C143.256 25.02 143.309 25.5467 143.416 26C143.522 26.44 143.729 26.7867 144.036 27.04C144.356 27.28 144.816 27.4 145.416 27.4ZM152.057 29V12.8H155.777C156.51 12.8 157.144 12.88 157.677 13.04C158.224 13.2 158.677 13.4467 159.037 13.78C159.397 14.1133 159.664 14.54 159.837 15.06C160.01 15.5667 160.097 16.1667 160.097 16.86C160.097 17.5267 160.01 18.1067 159.837 18.6C159.677 19.08 159.424 19.46 159.077 19.74C158.744 20.02 158.31 20.2 157.777 20.28C158.43 20.4267 158.957 20.68 159.357 21.04C159.757 21.3867 160.05 21.84 160.237 22.4C160.437 22.9467 160.537 23.6067 160.537 24.38C160.537 25.0733 160.457 25.7067 160.297 26.28C160.137 26.8533 159.884 27.34 159.537 27.74C159.204 28.14 158.77 28.4533 158.237 28.68C157.717 28.8933 157.097 29 156.377 29H152.057ZM154.317 27.38H155.837C156.85 27.38 157.524 27.1467 157.857 26.68C158.204 26.2 158.377 25.4333 158.377 24.38C158.377 23.7 158.284 23.1333 158.097 22.68C157.924 22.2133 157.637 21.8667 157.237 21.64C156.85 21.4 156.324 21.28 155.657 21.28H154.317V27.38ZM154.317 19.56H155.657C156.297 19.56 156.797 19.4733 157.157 19.3C157.517 19.1133 157.77 18.82 157.917 18.42C158.064 18.02 158.137 17.5 158.137 16.86C158.137 16.1133 158.024 15.5733 157.797 15.24C157.57 14.9067 157.217 14.7 156.737 14.62C156.257 14.5267 155.63 14.48 154.857 14.48H154.317V19.56ZM166.365 29.18C165.432 29.18 164.652 28.98 164.025 28.58C163.412 28.18 162.945 27.6267 162.625 26.92C162.305 26.2133 162.118 25.3933 162.065 24.46L164.065 23.92C164.105 24.4933 164.192 25.0467 164.325 25.58C164.472 26.1133 164.705 26.5533 165.025 26.9C165.345 27.2333 165.792 27.4 166.365 27.4C166.952 27.4 167.392 27.24 167.685 26.92C167.992 26.5867 168.145 26.1133 168.145 25.5C168.145 24.7667 167.978 24.18 167.645 23.74C167.312 23.2867 166.892 22.8333 166.385 22.38L163.665 19.98C163.132 19.5133 162.738 19.0067 162.485 18.46C162.232 17.9 162.105 17.2133 162.105 16.4C162.105 15.2133 162.445 14.2933 163.125 13.64C163.805 12.9867 164.732 12.66 165.905 12.66C166.545 12.66 167.105 12.7467 167.585 12.92C168.078 13.08 168.485 13.3333 168.805 13.68C169.138 14.0267 169.398 14.4667 169.585 15C169.785 15.52 169.918 16.1333 169.985 16.84L168.065 17.36C168.025 16.8267 167.945 16.34 167.825 15.9C167.705 15.4467 167.492 15.0867 167.185 14.82C166.892 14.54 166.465 14.4 165.905 14.4C165.345 14.4 164.905 14.5533 164.585 14.86C164.278 15.1533 164.125 15.5933 164.125 16.18C164.125 16.6733 164.205 17.08 164.365 17.4C164.538 17.72 164.812 18.0467 165.185 18.38L167.925 20.78C168.538 21.3133 169.078 21.9533 169.545 22.7C170.012 23.4333 170.245 24.3067 170.245 25.32C170.245 26.12 170.078 26.8133 169.745 27.4C169.412 27.9733 168.952 28.4133 168.365 28.72C167.792 29.0267 167.125 29.18 166.365 29.18Z" fill="#2C6CF6"/>
<rect width="40" height="40" rx="20" fill="#074EE8"/>
<path d="M16.34 29.24C15.1133 29.24 14.14 29.02 13.42 28.58C12.7133 28.1267 12.2133 27.5 11.92 26.7C11.6267 25.8867 11.48 24.9333 11.48 23.84V18C11.48 16.88 11.6267 15.92 11.92 15.12C12.2133 14.3067 12.7133 13.68 13.42 13.24C14.14 12.8 15.1133 12.58 16.34 12.58C17.54 12.58 18.4733 12.78 19.14 13.18C19.82 13.5667 20.3 14.1133 20.58 14.82C20.86 15.5267 21 16.34 21 17.26V18.66H17.5V17.04C17.5 16.72 17.48 16.4133 17.44 16.12C17.4133 15.8267 17.32 15.5867 17.16 15.4C17 15.2 16.7267 15.1 16.34 15.1C15.9667 15.1 15.6867 15.2 15.5 15.4C15.3267 15.6 15.2133 15.8533 15.16 16.16C15.12 16.4533 15.1 16.7667 15.1 17.1V24.72C15.1 25.08 15.1267 25.4133 15.18 25.72C15.2467 26.0133 15.3667 26.2533 15.54 26.44C15.7267 26.6133 15.9933 26.7 16.34 26.7C16.7133 26.7 16.98 26.6067 17.14 26.42C17.3 26.22 17.4 25.9667 17.44 25.66C17.48 25.3533 17.5 25.04 17.5 24.72V23.02H21V24.42C21 25.34 20.86 26.1667 20.58 26.9C20.3133 27.62 19.84 28.1933 19.16 28.62C18.4933 29.0333 17.5533 29.24 16.34 29.24ZM22.0295 29.42V26.92C22.3895 26.92 22.6962 26.9 22.9495 26.86C23.2029 26.82 23.4029 26.7467 23.5495 26.64C23.6962 26.52 23.8029 26.3533 23.8695 26.14C23.9362 25.9133 23.9695 25.6267 23.9695 25.28V12.8H27.5495V25.44C27.5495 26.32 27.4362 27.06 27.2095 27.66C26.9962 28.2467 26.6162 28.6867 26.0695 28.98C25.5229 29.2733 24.7562 29.42 23.7695 29.42H22.0295Z" fill="white"/>
</svg>
