<svg width="25" height="25" viewBox="0 0 25 25" fill="none" xmlns="http://www.w3.org/2000/svg">
<g clip-path="url(#clip0_126_53)">
<path d="M21.7072 10.892C21.7072 17.892 12.7072 23.892 12.7072 23.892C12.7072 23.892 3.70715 17.892 3.70715 10.892C3.70715 8.50508 4.65536 6.21589 6.34319 4.52807C8.03102 2.84024 10.3202 1.89203 12.7072 1.89203C15.0941 1.89203 17.3833 2.84024 19.0711 4.52807C20.7589 6.21589 21.7072 8.50508 21.7072 10.892Z" stroke="white" stroke-width="2" stroke-linecap="round" stroke-linejoin="round"/>
<path d="M12.7072 13.892C14.364 13.892 15.7072 12.5489 15.7072 10.892C15.7072 9.23517 14.364 7.89203 12.7072 7.89203C11.0503 7.89203 9.70715 9.23517 9.70715 10.892C9.70715 12.5489 11.0503 13.892 12.7072 13.892Z" stroke="white" stroke-width="2" stroke-linecap="round" stroke-linejoin="round"/>
</g>
<defs>
<clipPath id="clip0_126_53">
<rect width="24" height="24" fill="white" transform="translate(0.707153 0.892029)"/>
</clipPath>
</defs>
</svg>
