<svg width="145" height="98" viewBox="0 0 145 98" fill="none" xmlns="http://www.w3.org/2000/svg">
<path d="M139.142 69.8956C139.23 68.9265 136.967 68.3937 137.092 67.5469C137.217 66.7031 139.508 66.9383 141.974 65.4721C142.419 65.2077 145.221 63.5414 144.986 62.2309C144.54 59.7467 133.573 60.7253 132.601 57.1031C132.388 56.3082 132.634 55.2072 132.054 52.7111C131.823 51.7181 131.623 51.2007 131.193 51.0279C130.582 50.7827 130.041 51.4456 128.502 52.4058C126.194 53.8459 125.791 53.3665 124.128 54.645C122.894 55.5941 122.468 56.3568 121.946 56.1874C121.207 55.9476 121.583 54.2656 120.741 53.8309C119.881 53.3873 118.333 54.542 117.377 55.5533C115.582 57.4511 115.351 59.3936 114.725 61.1589C114.044 63.0774 112.58 65.6834 109.045 68.3147L76.8246 90.5347C83.6013 86.0948 102.539 74.1852 109.906 69.998C112.032 68.7892 114.263 67.6167 116.649 68.2441C118.947 68.8482 121.111 71.048 124.802 72.5656C125.233 72.7428 126.438 73.2209 127 72.7143C127.464 72.2954 127.065 71.5851 127.493 71.1876C128.066 70.6544 129.25 71.4997 131.217 71.8295C132.604 72.0621 133.675 71.9202 134.597 71.7981C134.874 71.7613 139.024 71.1856 139.142 69.8956Z" fill="#F2F2F2"/>
<path d="M86.0433 55.4293C85.5935 55.1062 84.6791 56.0643 84.2999 55.7584C83.9221 55.4536 84.6985 54.3963 84.6909 52.762C84.6895 52.4673 84.6809 50.6101 83.9702 50.3475C82.6232 49.8497 79.9387 55.5187 77.8819 54.9507C77.4305 54.8261 76.9613 54.3878 75.5697 53.9525C75.0161 53.7793 74.7047 53.728 74.4958 53.8895C74.1994 54.1186 74.3682 54.576 74.3951 55.6089C74.4355 57.158 74.0842 57.2175 74.2315 58.4029C74.3409 59.2829 74.592 59.7124 74.3582 59.92C74.0273 60.2138 73.3109 59.5437 72.8548 59.8318C72.3893 60.1259 72.5089 61.2195 72.7289 61.9811C73.1418 63.4102 74.0279 64.0842 74.7131 64.901C75.4577 65.7887 76.3133 67.26 76.584 69.7553L78.1855 91.9914C77.9631 87.382 77.586 74.6445 77.6579 69.8183C77.6786 68.425 77.7472 66.991 78.7435 66C79.7027 65.0459 81.4061 64.6174 83.2152 63.2429C83.4265 63.0824 84.0089 62.628 83.9224 62.2061C83.851 61.8572 83.3875 61.8482 83.3159 61.5235C83.2199 61.0879 83.9759 60.7505 84.7052 59.8797C85.2195 59.2656 85.459 58.6984 85.665 58.2106C85.7271 58.0636 86.6421 55.8593 86.0433 55.4293Z" fill="#F2F2F2"/>
<path d="M93.5385 63.9184L95.0137 61.3086L95.2695 61.215C96.4527 60.7824 97.3415 60.1668 97.9122 59.3848C98.003 59.2605 98.0873 59.1316 98.1734 59.0003C98.5142 58.4798 98.9376 57.8328 99.7914 57.3392C100.268 57.0648 101.463 56.4949 102.151 57.1706C102.338 57.3503 102.426 57.5598 102.465 57.7581C102.502 57.7428 102.541 57.7279 102.582 57.7115C103.088 57.5185 103.392 57.499 103.685 57.4803C103.91 57.4658 104.143 57.4511 104.577 57.332C104.767 57.2798 104.924 57.2267 105.057 57.1823C105.458 57.0484 105.959 56.9051 106.415 57.244C106.89 57.6232 106.853 58.2165 106.829 58.6093C106.786 59.3101 106.674 59.7562 106.599 60.0521C106.572 60.1601 106.541 60.2819 106.54 60.3249C106.53 60.6728 107.975 61.3872 108.517 61.6592C109.739 62.2663 110.795 62.7917 110.687 63.7607C110.609 64.4542 109.932 64.9549 108.618 65.2875C108.209 65.3908 107.831 65.421 107.511 65.4271C107.609 65.6541 107.649 65.9227 107.532 66.215C107.256 66.9065 106.329 67.1289 104.777 66.8788C104.391 66.8177 103.872 66.7335 103.273 66.4397C102.991 66.3011 102.757 66.148 102.56 66.0138C102.475 66.1228 102.361 66.225 102.202 66.3004C101.737 66.5229 101.195 66.3967 100.599 65.901C99.9351 65.3656 99.4624 64.8227 99.045 64.3446C98.68 63.9277 98.3648 63.5698 98.0546 63.3753C97.4739 63.0224 96.7333 63.1557 95.8249 63.3665L93.5385 63.9184Z" fill="#F2F2F2"/>
<path d="M105.185 50.4524L102.288 49.6864L102.132 49.4625C101.414 48.4269 100.594 47.7227 99.6929 47.3687C99.5497 47.3124 99.4037 47.2634 99.255 47.2134C98.6655 47.0156 97.9326 46.7698 97.2389 46.0686C96.8527 45.6764 95.9988 44.6645 96.4774 43.8272C96.6037 43.6007 96.7838 43.4623 96.9658 43.3747C96.9414 43.3421 96.9172 43.3088 96.891 43.2732C96.576 42.8323 96.4801 42.5428 96.3877 42.2638C96.3165 42.0495 96.2434 41.8282 96.0182 41.4384C95.9194 41.2674 95.8282 41.1286 95.7517 41.0117C95.5205 40.6574 95.2548 40.2086 95.4669 39.6813C95.713 39.1256 96.2957 39.0107 96.6816 38.9343C97.3698 38.7978 97.8295 38.7933 98.1344 38.7905C98.2457 38.7897 98.3712 38.7882 98.4133 38.7791C98.7521 38.7007 99.076 37.1204 99.2014 36.5263C99.4785 35.1902 99.7183 34.0341 100.683 33.8936C101.372 33.7925 102.028 34.3208 102.683 35.5085C102.887 35.8784 103.012 36.2363 103.099 36.5448C103.293 36.3927 103.543 36.2858 103.855 36.3243C104.593 36.4164 105.043 37.2569 105.195 38.8227C105.234 39.212 105.284 39.7353 105.153 40.3901C105.09 40.6985 105.001 40.9634 104.922 41.1887C105.049 41.2433 105.176 41.3276 105.289 41.4617C105.623 41.8556 105.638 42.4126 105.31 43.1156C104.961 43.8936 104.556 44.4888 104.2 45.0141C103.889 45.4731 103.623 45.8691 103.514 46.2187C103.32 46.8703 103.637 47.5534 104.071 48.3792L105.185 50.4524Z" fill="#F2F2F2"/>
<path d="M109.073 42.4326L110.548 39.8228L110.804 39.7292C111.987 39.2966 112.876 38.681 113.447 37.899C113.538 37.7747 113.622 37.6457 113.708 37.5145C114.049 36.994 114.472 36.347 115.326 35.8534C115.803 35.579 116.998 35.0091 117.686 35.6848C117.873 35.8645 117.961 36.074 117.999 36.2723C118.037 36.257 118.075 36.2421 118.116 36.2257C118.622 36.0327 118.927 36.0132 119.22 35.9945C119.445 35.98 119.677 35.9653 120.111 35.8462C120.302 35.794 120.459 35.7409 120.591 35.6965C120.992 35.5626 121.494 35.4192 121.949 35.7582C122.424 36.1374 122.388 36.7306 122.363 37.1235C122.321 37.8243 122.209 38.2704 122.134 38.5663C122.106 38.6742 122.076 38.7961 122.074 38.8391C122.064 39.187 123.509 39.9014 124.052 40.1734C125.273 40.7805 126.33 41.3059 126.221 42.2749C126.144 42.9684 125.467 43.4691 124.153 43.8017C123.743 43.905 123.366 43.9352 123.046 43.9413C123.143 44.1683 123.183 44.4369 123.067 44.7292C122.791 45.4206 121.864 45.6431 120.312 45.393C119.926 45.3319 119.407 45.2477 118.808 44.9539C118.525 44.8153 118.292 44.6622 118.094 44.528C118.009 44.6369 117.895 44.7392 117.737 44.8146C117.272 45.0371 116.73 44.9109 116.133 44.4152C115.47 43.8797 114.997 43.3369 114.58 42.8588C114.215 42.4419 113.899 42.0839 113.589 41.8895C113.008 41.5366 112.268 41.6699 111.36 41.8806L109.073 42.4326Z" fill="#F2F2F2"/>
<path d="M77.6607 91.0801L77.3844 90.397L76.7461 90.0378C76.7763 89.9763 76.8353 89.8272 76.9294 89.5952C77.446 88.3248 79.0167 84.4575 82.0861 78.7984C84.2289 74.8481 86.6482 70.9436 89.2778 67.1912C91.9116 63.4331 94.1229 60.7453 95.8997 58.5848C97.2401 56.9554 98.5443 55.424 99.8158 53.933C103.211 49.9485 106.418 46.1844 109.379 41.5901C110.04 40.5649 111.416 38.43 111.797 35.3745C112.018 33.6024 111.874 31.7822 111.366 29.9657L112.785 29.5689C113.344 31.5755 113.503 33.5907 113.258 35.5584C112.835 38.9462 111.336 41.2723 110.616 42.39C107.603 47.0653 104.365 50.8653 100.936 54.8881C99.6701 56.3742 98.371 57.8985 97.0362 59.5213C95.2757 61.6617 93.0839 64.3263 90.4841 68.0362C87.8853 71.7434 85.496 75.6004 83.3797 79.5006C80.3493 85.0885 78.8024 88.8984 78.2941 90.15C78.0223 90.818 77.9654 90.958 77.6607 91.0801Z" fill="#F2F2F2"/>
<path d="M107.807 30.2784C107.759 30.2429 107.71 30.2059 107.662 30.1662C106.686 29.3759 106.185 28.0864 106.173 26.3336C106.169 25.51 106.412 24.7498 106.895 23.2337C106.97 22.9997 107.36 21.8223 108.129 20.3706C108.631 19.4219 108.907 19.0727 109.307 18.878C109.753 18.6607 110.238 18.6354 110.703 18.7183C110.771 18.5931 110.868 18.4842 111.004 18.4C111.567 18.0495 112.061 18.5061 112.33 18.7492C112.465 18.875 112.632 19.0332 112.839 19.1669C113.163 19.3786 113.399 19.4072 113.755 19.452C114.096 19.4947 114.52 19.5477 115.037 19.7816C116.058 20.2389 116.62 21.0292 116.805 21.2895C117.784 22.6537 117.695 24.1178 117.591 25.813C117.569 26.1524 117.459 27.3658 116.951 28.7699C116.584 29.7829 116.28 30.1315 116.007 30.3566C115.449 30.8204 114.866 30.8959 113.465 30.9791C112.001 31.0678 111.266 31.1116 110.704 31.0544C109.397 30.9196 108.576 30.835 107.807 30.2784Z" fill="#F2F2F2"/>
<path d="M53.1683 97.9669C26.2835 97.9669 4.41101 76.0793 4.41101 49.1755C4.41101 22.2718 26.2835 0.384216 53.1683 0.384216C80.0531 0.384216 101.926 22.272 101.926 49.1755C101.926 76.0791 80.0531 97.9669 53.1683 97.9669ZM53.1683 1.20424C26.7352 1.20424 18.7514 35.2352 5.23046 49.1755C-13.1794 68.1565 26.7352 97.1468 53.1683 97.1468C79.6014 97.1468 101.106 75.6269 101.106 49.1755C101.106 22.7242 79.6014 1.20424 53.1683 1.20424Z" fill="#074EE8" fill-opacity="0.2"/>
<path d="M55.9611 59.9993C55.9611 60.7547 55.3492 61.3671 54.5943 61.3671C53.8394 61.3671 53.2275 60.7547 53.2275 59.9993V49.6234L50.0947 52.7611C49.5603 53.2959 48.6938 53.2959 48.1593 52.7611C47.6249 52.2262 47.6249 51.3591 48.1593 50.8243L53.6266 45.3532C54.1597 44.8184 55.0251 44.8173 55.5596 45.3508L55.562 45.3532L61.0293 50.8243C61.5637 51.3591 61.5637 52.2262 61.0293 52.7611C60.4949 53.2959 59.6283 53.2959 59.0939 52.7611L55.9611 49.6234V59.9993Z" fill="#074EE8"/>
<path d="M70.9961 66.8382V40.8505L58.6948 28.5406H43.6598C40.6403 28.5406 38.1925 30.9901 38.1925 34.0117V66.8382C38.1925 69.8598 40.6403 72.3093 43.6598 72.3093H65.5289C68.5484 72.3093 70.9961 69.8598 70.9961 66.8382ZM58.6948 36.7472C58.6948 39.0134 60.5306 40.8505 62.7952 40.8505H68.2625V66.8382C68.2625 68.349 67.0386 69.5737 65.5289 69.5737H43.6598C42.15 69.5737 40.9261 68.349 40.9261 66.8382V34.0117C40.9261 32.5009 42.15 31.2761 43.6598 31.2761H58.6948V36.7472Z" fill="#074EE8"/>
</svg>
