<svg width="285" height="258" viewBox="0 0 285 258" fill="none" xmlns="http://www.w3.org/2000/svg">
<g clip-path="url(#clip0_111_87)">
<path d="M124.563 213.379H5.64685C4.14973 213.377 2.71441 212.781 1.65579 211.722C0.597162 210.663 0.0016849 209.227 0 207.729V46.1989C0.00168491 44.7009 0.597162 43.2647 1.65579 42.2055C2.71441 41.1462 4.14973 40.5504 5.64685 40.5487H124.563C126.06 40.5504 127.495 41.1462 128.554 42.2055C129.613 43.2647 130.208 44.7009 130.21 46.1989V207.729C130.208 209.227 129.613 210.663 128.554 211.722C127.495 212.781 126.06 213.377 124.563 213.379Z" fill="white"/>
<path d="M59.7442 82.5873C59.7442 87.2525 58.2693 91.7981 55.5305 95.5735C52.7917 99.3489 48.9294 102.161 44.4965 103.606C44.3639 103.648 44.2315 103.69 44.0969 103.731C43.5227 103.907 42.9404 104.058 42.348 104.187C41.2761 104.419 40.1881 104.571 39.0933 104.639C38.6175 104.671 38.139 104.687 37.6577 104.687C35.1712 104.689 32.7021 104.271 30.3551 103.449C30.2868 103.425 30.2186 103.401 30.1523 103.377C26.3496 102.003 22.9968 99.6107 20.4592 96.4611C17.9216 93.3116 16.2967 89.5256 15.7614 85.5157C15.2261 81.5057 15.801 77.4257 17.4235 73.7202C19.046 70.0147 21.6538 66.8258 24.9627 64.5011C28.2717 62.1764 32.1548 60.805 36.189 60.5364C40.2233 60.2679 44.2538 61.1123 47.8414 62.9779C51.429 64.8434 54.436 67.6584 56.5349 71.1162C58.6337 74.5739 59.7438 78.5418 59.7442 82.5873Z" fill="white"/>
<path d="M37.1285 97.2293C43.0633 97.2293 47.8744 92.4153 47.8744 86.4769C47.8744 80.5386 43.0633 75.7246 37.1285 75.7246C31.1937 75.7246 26.3826 80.5386 26.3826 86.4769C26.3826 92.4153 31.1937 97.2293 37.1285 97.2293Z" fill="#6C63FF"/>
<path d="M37.7559 92.2702L37.7671 91.8683C37.02 91.8475 36.3614 91.8007 35.8665 91.4389C35.7261 91.3305 35.6108 91.1931 35.5283 91.0361C35.4458 90.8791 35.398 90.7062 35.3883 90.5291C35.3796 90.4209 35.396 90.3121 35.4361 90.2113C35.4763 90.1104 35.5391 90.0202 35.6198 89.9476C35.8068 89.8342 36.0208 89.7733 36.2395 89.7713C36.4581 89.7694 36.6733 89.8265 36.8622 89.9366L37.1945 90.089L36.5573 85.4299L36.1595 85.4845L36.7015 89.4477C36.4796 89.3653 36.2407 89.3398 36.0065 89.3735C35.7723 89.4073 35.5502 89.4991 35.3606 89.6407C35.233 89.7522 35.1329 89.8916 35.0681 90.0482C35.0033 90.2047 34.9756 90.3742 34.987 90.5432C34.9988 90.7812 35.0624 91.0137 35.1733 91.2245C35.2843 91.4352 35.4401 91.6192 35.6296 91.7634C36.2655 92.2284 37.0919 92.2515 37.7559 92.2702Z" fill="#2F2E41"/>
<path d="M34.1919 85.8263H32.0292V86.2281H34.1919V85.8263Z" fill="#2F2E41"/>
<path d="M41.0187 85.8263H38.8559V86.2281H41.0187V85.8263Z" fill="#2F2E41"/>
<path d="M40.1815 101.509C40.21 101.377 40.2249 101.242 40.2258 101.107C40.225 100.601 40.0237 100.116 39.6662 99.7581C39.3087 99.4003 38.8239 99.199 38.3183 99.1982H35.5073C35.0015 99.1986 34.5166 99.3999 34.159 99.7577C33.8014 100.116 33.6003 100.601 33.5998 101.107C33.5997 101.243 33.6145 101.378 33.6439 101.511C32.5828 101.845 31.5797 102.342 30.6704 102.983C30.4936 103.106 30.319 103.238 30.1523 103.377C30.2186 103.401 30.2868 103.425 30.3551 103.449C32.7021 104.271 35.1711 104.689 37.6577 104.687C38.1395 104.687 38.6181 104.671 39.0933 104.639C40.188 104.571 41.2761 104.419 42.348 104.187C42.9404 104.058 43.5226 103.907 44.0969 103.731C42.9608 102.725 41.6272 101.968 40.1815 101.509Z" fill="#2F2E41"/>
<path d="M39.8202 104.384C39.5596 104.403 39.3088 104.491 39.0933 104.639C40.1881 104.57 41.2761 104.419 42.348 104.187L39.8202 104.384Z" fill="#2F2E41"/>
<path d="M46.8744 83.9226L28.2065 77.0893C28.0065 77.0161 27.8437 76.8663 27.754 76.673C27.6643 76.4797 27.655 76.2587 27.7282 76.0585L27.7914 75.7597C29.2493 71.7721 34.0816 69.2625 38.0668 70.7213L43.8114 72.8241C47.7966 74.2829 49.5287 79.0047 48.0708 82.9924L47.9046 83.444C47.8314 83.6442 47.6818 83.8071 47.4886 83.8968C47.2954 83.9866 47.0745 83.9959 46.8744 83.9226Z" fill="#2F2E41"/>
<path d="M47.88 84.3017C21.8606 85.2624 19.5871 81.9912 27.515 76.8472L29.1969 73.7506L48.4724 80.7823L47.88 84.3017Z" fill="#2F2E41"/>
<path d="M42.7781 72.3337C42.9217 71.8555 42.3064 71.2478 41.4038 70.9763C40.5011 70.7048 39.6529 70.8723 39.5092 71.3505C39.3656 71.8287 39.9809 72.4364 40.8836 72.7079C41.7862 72.9794 42.6344 72.8119 42.7781 72.3337Z" fill="#2F2E41"/>
<path d="M37.6577 105.29C35.1033 105.292 32.5669 104.863 30.1559 104.018L29.9464 103.943C24.8962 102.117 20.657 98.5581 17.9827 93.8987C15.3084 89.2394 14.3724 83.782 15.3411 78.4971C16.3098 73.2122 19.1204 68.4424 23.2731 65.0359C27.4258 61.6294 32.6514 59.8071 38.0205 59.893C43.3897 59.979 48.5544 61.9676 52.5961 65.5052C56.6378 69.0428 59.2945 73.9001 60.0938 79.2133C60.8931 84.5265 59.7831 89.9512 56.9613 94.5225C54.1395 99.0939 49.7887 102.516 44.6827 104.179C44.54 104.225 44.4057 104.267 44.2692 104.308C43.6989 104.484 43.0939 104.642 42.4757 104.776C41.3739 105.015 40.2556 105.17 39.1303 105.24C38.6469 105.273 38.1502 105.29 37.6577 105.29ZM37.6577 61.0904C32.6021 61.0911 27.7087 62.8754 23.8381 66.1296C19.9675 69.3838 17.3676 73.8993 16.4956 78.8821C15.6236 83.8649 16.5355 88.9957 19.0708 93.3722C21.606 97.7488 25.6024 101.091 30.3569 102.81L30.5558 102.881C32.8383 103.68 35.2395 104.087 37.6577 104.084C38.1233 104.084 38.5926 104.068 39.0527 104.037C40.1182 103.971 41.1773 103.824 42.2207 103.598C42.8054 103.471 43.3771 103.322 43.9198 103.155C44.0541 103.114 44.1817 103.074 44.3093 103.033C49.1724 101.448 53.311 98.1796 55.9812 93.8148C58.6513 89.45 59.6779 84.2752 58.8764 79.2208C58.0748 74.1665 55.4977 69.5639 51.6083 66.2406C47.7189 62.9172 42.7723 61.0911 37.6577 61.0904Z" fill="#CCCCCC"/>
<path d="M124.563 213.379H5.64685C4.14973 213.377 2.71441 212.781 1.65579 211.722C0.597162 210.663 0.0016849 209.227 0 207.729V46.1989C0.00168491 44.7009 0.597162 43.2647 1.65579 42.2055C2.71441 41.1462 4.14973 40.5504 5.64685 40.5487H124.563C126.06 40.5504 127.495 41.1462 128.554 42.2055C129.613 43.2647 130.208 44.7009 130.21 46.1989V207.729C130.208 209.227 129.613 210.663 128.554 211.722C127.495 212.781 126.06 213.377 124.563 213.379ZM5.64685 41.2134C4.32586 41.2149 3.05942 41.7407 2.12534 42.6753C1.19126 43.6099 0.665834 44.8771 0.664336 46.1989V207.729C0.665832 209.051 1.19125 210.318 2.12533 211.252C3.05941 212.187 4.32586 212.713 5.64685 212.714H124.563C125.884 212.713 127.15 212.187 128.084 211.252C129.018 210.318 129.544 209.051 129.545 207.729V46.1989C129.544 44.8771 129.018 43.6099 128.084 42.6753C127.15 41.7407 125.884 41.2149 124.563 41.2134H5.64685Z" fill="#CCCCCC"/>
<path d="M101.542 82.5013H67.893C67.1876 82.5004 66.5113 82.2194 66.0128 81.72C65.5143 81.2206 65.2343 80.5436 65.2343 79.8377C65.2343 79.1318 65.5143 78.4548 66.0128 77.9554C66.5113 77.456 67.1876 77.1749 67.893 77.1741H101.542C101.892 77.1736 102.239 77.2422 102.562 77.3759C102.885 77.5095 103.179 77.7057 103.427 77.9531C103.674 78.2004 103.871 78.4942 104.005 78.8176C104.139 79.141 104.208 79.4876 104.208 79.8377C104.208 80.1878 104.139 80.5344 104.005 80.8578C103.871 81.1812 103.674 81.4749 103.427 81.7223C103.179 81.9697 102.885 82.1658 102.562 82.2995C102.239 82.4332 101.892 82.5017 101.542 82.5013Z" fill="#E6E6E6"/>
<path d="M112.523 91.4909H67.893C67.1876 91.4901 66.5113 91.209 66.0128 90.7096C65.5143 90.2102 65.2343 89.5332 65.2343 88.8273C65.2343 88.1215 65.5143 87.4445 66.0128 86.945C66.5113 86.4456 67.1876 86.1646 67.893 86.1637H112.523C113.228 86.1646 113.905 86.4456 114.403 86.945C114.902 87.4445 115.182 88.1215 115.182 88.8273C115.182 89.5332 114.902 90.2102 114.403 90.7096C113.905 91.209 113.228 91.4901 112.523 91.4909Z" fill="#E6E6E6"/>
<path d="M101.493 125.97H17.6867C17.3368 125.971 16.9903 125.902 16.667 125.768C16.3436 125.635 16.0498 125.439 15.8022 125.191C15.5547 124.944 15.3583 124.65 15.2243 124.327C15.0903 124.003 15.0214 123.657 15.0214 123.307C15.0214 122.957 15.0903 122.61 15.2243 122.287C15.3583 121.963 15.5547 121.669 15.8022 121.422C16.0498 121.175 16.3436 120.978 16.667 120.845C16.9903 120.711 17.3368 120.643 17.6867 120.643H101.493C102.199 120.644 102.875 120.925 103.373 121.424C103.872 121.924 104.152 122.601 104.152 123.307C104.152 124.012 103.872 124.689 103.373 125.189C102.875 125.688 102.199 125.969 101.493 125.97Z" fill="#E6E6E6"/>
<path d="M112.474 134.96H17.6867C17.3368 134.96 16.9903 134.892 16.667 134.758C16.3436 134.624 16.0498 134.428 15.8022 134.181C15.5547 133.934 15.3583 133.64 15.2243 133.316C15.0903 132.993 15.0214 132.646 15.0214 132.296C15.0214 131.946 15.0903 131.6 15.2243 131.276C15.3583 130.953 15.5547 130.659 15.8022 130.412C16.0498 130.164 16.3436 129.968 16.667 129.834C16.9903 129.701 17.3368 129.632 17.6867 129.633H112.474C112.824 129.632 113.17 129.701 113.494 129.834C113.817 129.968 114.111 130.164 114.359 130.412C114.606 130.659 114.802 130.953 114.936 131.276C115.07 131.6 115.139 131.946 115.139 132.296C115.139 132.646 115.07 132.993 114.936 133.316C114.802 133.64 114.606 133.934 114.359 134.181C114.111 134.428 113.817 134.624 113.494 134.758C113.17 134.892 112.824 134.96 112.474 134.96Z" fill="#E6E6E6"/>
<path d="M101.493 155.622H17.6867C16.9807 155.622 16.3036 155.341 15.8044 154.842C15.3051 154.342 15.0247 153.665 15.0247 152.958C15.0247 152.252 15.3051 151.574 15.8044 151.075C16.3036 150.575 16.9807 150.295 17.6867 150.295H101.493C102.199 150.295 102.876 150.575 103.376 151.075C103.875 151.574 104.155 152.252 104.155 152.958C104.155 153.665 103.875 154.342 103.376 154.842C102.876 155.341 102.199 155.622 101.493 155.622Z" fill="#E6E6E6"/>
<path d="M112.474 164.611H17.6867C16.9807 164.611 16.3036 164.331 15.8044 163.831C15.3051 163.332 15.0247 162.654 15.0247 161.948C15.0247 161.241 15.3051 160.564 15.8044 160.064C16.3036 159.565 16.9807 159.284 17.6867 159.284H112.474C113.18 159.284 113.857 159.565 114.356 160.064C114.856 160.564 115.136 161.241 115.136 161.948C115.136 162.654 114.856 163.332 114.356 163.831C113.857 164.331 113.18 164.611 112.474 164.611Z" fill="#E6E6E6"/>
<path d="M101.493 185.273H17.6867C16.9807 185.273 16.3036 184.993 15.8044 184.493C15.3051 183.994 15.0247 183.316 15.0247 182.61C15.0247 181.903 15.3051 181.226 15.8044 180.726C16.3036 180.227 16.9807 179.946 17.6867 179.946H101.493C102.199 179.946 102.876 180.227 103.376 180.726C103.875 181.226 104.155 181.903 104.155 182.61C104.155 183.316 103.875 183.994 103.376 184.493C102.876 184.993 102.199 185.273 101.493 185.273Z" fill="#E6E6E6"/>
<path d="M112.474 194.263H17.6867C16.9807 194.263 16.3036 193.982 15.8044 193.483C15.3051 192.983 15.0247 192.306 15.0247 191.599C15.0247 190.893 15.3051 190.215 15.8044 189.716C16.3036 189.216 16.9807 188.936 17.6867 188.936H112.474C113.18 188.936 113.857 189.216 114.356 189.716C114.856 190.215 115.136 190.893 115.136 191.599C115.136 192.306 114.856 192.983 114.356 193.483C113.857 193.982 113.18 194.263 112.474 194.263Z" fill="#E6E6E6"/>
<path d="M279.353 172.83L160.437 172.83C158.94 172.829 157.505 172.233 156.446 171.174C155.387 170.114 154.792 168.678 154.79 167.18L154.79 5.65032C154.792 4.15231 155.387 2.71613 156.446 1.65687C157.505 0.597616 158.94 0.00178051 160.437 9.35154e-05L279.353 0C280.85 0.00168483 282.285 0.597512 283.344 1.65677C284.403 2.71602 284.998 4.1522 285 5.65022L285 167.18C284.998 168.678 284.403 170.114 283.344 171.174C282.286 172.233 280.85 172.829 279.353 172.83Z" fill="white"/>
<path d="M279.353 172.83L160.437 172.83C158.94 172.829 157.505 172.233 156.446 171.174C155.387 170.114 154.792 168.678 154.79 167.18L154.79 5.65032C154.792 4.15231 155.387 2.71613 156.446 1.65687C157.505 0.597616 158.94 0.00178051 160.437 9.35154e-05L279.353 0C280.85 0.00168483 282.285 0.597512 283.344 1.65677C284.403 2.71602 284.998 4.1522 285 5.65022L285 167.18C284.998 168.678 284.403 170.114 283.344 171.174C282.286 172.233 280.85 172.829 279.353 172.83ZM160.437 0.664826C159.116 0.666324 157.849 1.19206 156.915 2.1267C155.981 3.06134 155.456 4.32855 155.454 5.65032L155.455 167.18C155.456 168.502 155.981 169.769 156.916 170.704C157.85 171.638 159.116 172.164 160.437 172.166L279.353 172.166C280.674 172.164 281.941 171.638 282.875 170.704C283.809 169.769 284.334 168.502 284.336 167.18L284.336 5.65022C284.334 4.32845 283.809 3.06124 282.875 2.1266C281.94 1.19197 280.674 0.666229 279.353 0.664732L160.437 0.664826Z" fill="#CCCCCC"/>
<path d="M214.59 41.8184C214.59 46.1893 213.295 50.462 210.868 54.0963C208.441 57.7306 204.992 60.5632 200.956 62.2358C196.92 63.9085 192.479 64.3461 188.195 63.4934C183.91 62.6407 179.975 60.5359 176.886 57.4452C173.797 54.3545 171.694 50.4168 170.842 46.1298C169.989 41.8429 170.427 37.3994 172.098 33.3613C173.77 29.3231 176.601 25.8716 180.233 23.4432C183.865 21.0149 188.135 19.7188 192.504 19.7188C198.361 19.7206 203.977 22.0495 208.119 26.1936C212.261 30.3377 214.588 35.9578 214.59 41.8184Z" fill="white"/>
<path d="M202.712 45.5999C202.47 59.7338 181.459 59.7316 181.22 45.5995C181.461 31.466 202.472 31.4682 202.712 45.5999Z" fill="#6C63FF"/>
<path d="M191.539 49.987L191.528 49.5851C194.296 49.9549 194.892 46.5227 192.101 47.8058L192.738 43.1467L193.136 43.2013L192.594 47.1644C195.533 46.7267 194.445 50.3885 191.539 49.987Z" fill="#2F2E41"/>
<path d="M197.266 43.543H195.103V43.9448H197.266V43.543Z" fill="#2F2E41"/>
<path d="M190.439 43.543H188.276V43.9448H190.439V43.543Z" fill="#2F2E41"/>
<path d="M195.449 60.6333C195.871 57.7865 192.54 58.349 190.777 58.3209C190.493 58.3218 190.212 58.3861 189.956 58.5091C189.7 58.6322 189.474 58.8109 189.296 59.0322C189.117 59.2536 188.99 59.512 188.924 59.7886C188.858 60.0652 188.854 60.3531 188.914 60.6313C187.549 61.0533 186.286 61.7508 185.201 62.6805C189.772 64.2752 194.738 64.3302 199.342 62.8372C198.22 61.8286 196.891 61.0765 195.449 60.6333Z" fill="#2F2E41"/>
<path d="M186.914 40.5143C188.905 39.3627 191.32 40.2462 193.377 40.7292C197.28 41.9297 202.753 40.4264 203.228 35.7744C203.722 31.4479 197.807 29.0366 195.916 33.3427L196.467 33.2707C190.335 24.1532 179.67 24.499 179.74 37.034C179.718 37.4212 180.32 37.4199 180.342 37.0337C180.117 29.647 185.002 24.5977 191.909 29.3447C193.451 30.553 194.811 31.9777 195.947 33.5749C196.666 34.3814 196.822 30.908 200.265 31.8178C204.053 33.2864 202.817 38.7146 199.431 39.9062C195.247 42.0451 190.715 37.8981 186.61 39.9936C186.543 40.0354 186.496 40.1012 186.478 40.1772C186.459 40.2532 186.471 40.3334 186.51 40.4009C186.55 40.4685 186.614 40.518 186.689 40.5392C186.764 40.5603 186.845 40.5514 186.914 40.5143Z" fill="#2F2E41"/>
<path d="M192.504 64.5209C186.8 64.5161 181.308 62.3602 177.122 58.4832C172.937 54.6061 170.366 49.2929 169.922 43.6032C169.478 37.9135 171.194 32.2654 174.727 27.7854C178.26 23.3054 183.352 20.3227 188.986 19.4322C194.619 18.5417 200.382 19.8089 205.123 22.9809C209.864 26.153 213.237 30.9969 214.567 36.5465C215.898 42.0961 215.088 47.9436 212.301 52.9228C209.514 57.9019 204.953 61.6468 199.529 63.4105C197.26 64.1487 194.889 64.5235 192.504 64.5209ZM192.504 20.3216C188.254 20.321 184.099 21.5815 180.565 23.9437C177.031 26.3059 174.276 29.6637 172.65 33.5925C171.023 37.5212 170.597 41.8444 171.426 46.0153C172.255 50.1861 174.302 54.0173 177.307 57.0244C180.312 60.0314 184.141 62.0791 188.309 62.9086C192.478 63.7381 196.798 63.312 200.725 61.6844C204.651 60.0567 208.007 57.3005 210.368 53.7644C212.729 50.2283 213.988 46.071 213.988 41.8185C213.981 36.1191 211.716 30.655 207.688 26.625C203.66 22.5949 198.2 20.328 192.504 20.3216Z" fill="#CCCCCC"/>
<path d="M256.332 41.9526L222.683 41.9526C221.977 41.9526 221.3 41.672 220.801 41.1725C220.302 40.673 220.021 39.9954 220.021 39.289C220.021 38.5826 220.302 37.9051 220.801 37.4055C221.3 36.906 221.977 36.6254 222.683 36.6254L256.332 36.6254C257.038 36.6254 257.715 36.906 258.215 37.4055C258.714 37.905 258.994 38.5825 258.994 39.289C258.994 39.9954 258.714 40.6729 258.215 41.1724C257.715 41.672 257.038 41.9526 256.332 41.9526Z" fill="#E6E6E6"/>
<path d="M267.313 50.9422L222.683 50.9423C222.333 50.9427 221.987 50.8741 221.663 50.7405C221.34 50.6068 221.046 50.4107 220.799 50.1633C220.551 49.9159 220.355 49.6221 220.221 49.2987C220.087 48.9754 220.018 48.6287 220.018 48.2787C220.018 47.9286 220.087 47.5819 220.221 47.2586C220.355 46.9352 220.551 46.6414 220.799 46.394C221.046 46.1466 221.34 45.9505 221.663 45.8168C221.987 45.6832 222.333 45.6146 222.683 45.615L267.313 45.615C268.019 45.615 268.696 45.8956 269.196 46.3951C269.695 46.8947 269.975 47.5722 269.975 48.2786C269.975 48.985 269.695 49.6625 269.196 50.1621C268.696 50.6616 268.019 50.9422 267.313 50.9422Z" fill="#E6E6E6"/>
<path d="M256.283 85.4216L172.477 85.4217C171.771 85.4208 171.095 85.1398 170.597 84.6404C170.098 84.1409 169.818 83.4639 169.818 82.7581C169.818 82.0522 170.098 81.3752 170.597 80.8757C171.095 80.3763 171.771 80.0953 172.477 80.0944L256.283 80.0944C256.989 80.0944 257.666 80.375 258.166 80.8745C258.665 81.374 258.945 82.0515 258.945 82.758C258.945 83.4644 258.665 84.1419 258.166 84.6415C257.666 85.141 256.989 85.4216 256.283 85.4216Z" fill="#E6E6E6"/>
<path d="M267.264 94.4112L172.477 94.4113C172.127 94.4117 171.78 94.3432 171.457 94.2095C171.134 94.0758 170.84 93.8797 170.592 93.6323C170.345 93.3849 170.148 93.0911 170.014 92.7678C169.88 92.4444 169.812 92.0977 169.812 91.7477C169.812 91.3976 169.88 91.051 170.014 90.7276C170.148 90.4042 170.345 90.1104 170.592 89.8631C170.84 89.6157 171.134 89.4195 171.457 89.2859C171.78 89.1522 172.127 89.0836 172.477 89.0841L267.264 89.084C267.97 89.084 268.647 89.3646 269.147 89.8641C269.646 90.3637 269.926 91.0412 269.926 91.7476C269.926 92.454 269.646 93.1315 269.147 93.6311C268.647 94.1306 267.97 94.4112 267.264 94.4112Z" fill="#E6E6E6"/>
<path d="M256.283 115.073L172.477 115.073C171.771 115.072 171.095 114.791 170.597 114.292C170.098 113.792 169.818 113.115 169.818 112.41C169.818 111.704 170.098 111.027 170.597 110.527C171.095 110.028 171.771 109.747 172.477 109.746L256.283 109.746C256.989 109.746 257.666 110.026 258.166 110.526C258.665 111.026 258.945 111.703 258.945 112.409C258.945 113.116 258.665 113.793 258.166 114.293C257.666 114.792 256.989 115.073 256.283 115.073Z" fill="#E6E6E6"/>
<path d="M267.264 124.063L172.477 124.063C172.127 124.063 171.781 123.995 171.457 123.861C171.134 123.727 170.84 123.531 170.592 123.284C170.345 123.037 170.149 122.743 170.015 122.419C169.881 122.096 169.812 121.749 169.812 121.399C169.812 121.049 169.881 120.703 170.015 120.379C170.149 120.056 170.345 119.762 170.592 119.515C170.84 119.267 171.134 119.071 171.457 118.937C171.781 118.804 172.127 118.735 172.477 118.736L267.264 118.736C267.97 118.736 268.647 119.016 269.147 119.516C269.646 120.015 269.926 120.693 269.926 121.399C269.926 122.106 269.646 122.783 269.147 123.283C268.647 123.782 267.97 124.063 267.264 124.063Z" fill="#E6E6E6"/>
<path d="M256.283 144.725L172.477 144.725C171.771 144.725 171.094 144.444 170.595 143.944C170.095 143.445 169.815 142.767 169.815 142.061C169.815 141.355 170.095 140.677 170.595 140.178C171.094 139.678 171.771 139.397 172.477 139.397L256.283 139.397C256.989 139.397 257.666 139.678 258.166 140.177C258.665 140.677 258.945 141.355 258.945 142.061C258.945 142.767 258.665 143.445 258.166 143.944C257.666 144.444 256.989 144.725 256.283 144.725Z" fill="#E6E6E6"/>
<path d="M267.264 153.714L172.477 153.714C171.771 153.714 171.094 153.434 170.595 152.934C170.095 152.435 169.815 151.757 169.815 151.051C169.815 150.344 170.095 149.667 170.595 149.167C171.094 148.668 171.771 148.387 172.477 148.387L267.264 148.387C267.97 148.387 268.647 148.668 269.147 149.167C269.646 149.667 269.926 150.344 269.926 151.051C269.926 151.757 269.646 152.435 269.147 152.934C268.647 153.434 267.97 153.714 267.264 153.714Z" fill="#E6E6E6"/>
<path d="M207.605 242.295H88.6888C87.1917 242.293 85.7563 241.697 84.6977 240.638C83.6391 239.579 83.0436 238.143 83.0419 236.645V75.1148C83.0436 73.6168 83.6391 72.1806 84.6977 71.1214C85.7563 70.0621 87.1917 69.4663 88.6888 69.4646H207.605C209.102 69.4663 210.537 70.0621 211.596 71.1214C212.655 72.1806 213.25 73.6168 213.252 75.1148V236.645C213.25 238.143 212.655 239.579 211.596 240.638C210.537 241.697 209.102 242.293 207.605 242.295Z" fill="white"/>
<path d="M98.6067 111.049C98.6028 113.958 99.1746 116.838 100.289 119.525C101.404 122.211 103.039 124.65 105.1 126.701C105.273 126.872 105.449 127.043 105.628 127.21C106.705 128.216 107.879 129.112 109.134 129.884C109.375 130.032 109.616 130.175 109.863 130.314C111.132 131.029 112.469 131.617 113.854 132.068C114.093 132.146 114.336 132.22 114.579 132.289C118.983 133.552 123.67 133.42 127.996 131.911C128.08 131.881 128.164 131.851 128.247 131.82C132.044 130.438 135.39 128.04 137.92 124.887C140.449 121.734 142.066 117.947 142.594 113.938C143.122 109.93 142.541 105.853 140.914 102.152C139.287 98.4507 136.676 95.2671 133.367 92.9476C130.057 90.628 126.174 89.2615 122.142 88.9966C118.11 88.7317 114.082 89.5787 110.498 91.4453C106.913 93.3119 103.909 96.1267 101.813 99.5832C99.7159 103.04 98.607 107.005 98.6067 111.049Z" fill="white"/>
<path d="M116.029 121.881C116.04 123.593 115.409 125.247 114.261 126.517C113.126 127.764 111.435 128.591 109.729 128.249C108.158 127.934 106.881 126.56 107.04 124.898C107.067 124.538 107.171 124.188 107.347 123.872C107.522 123.557 107.764 123.284 108.056 123.071C108.348 122.859 108.683 122.713 109.037 122.644C109.391 122.574 109.755 122.583 110.106 122.669C111.598 123.056 112.193 125.208 110.949 126.218C110.651 126.461 110.222 126.037 110.523 125.792C110.709 125.622 110.849 125.409 110.931 125.17C111.013 124.932 111.033 124.677 110.991 124.429C110.949 124.181 110.845 123.947 110.689 123.749C110.533 123.552 110.331 123.396 110.099 123.297C109.826 123.21 109.537 123.186 109.253 123.227C108.969 123.268 108.698 123.373 108.461 123.534C108.224 123.695 108.026 123.908 107.883 124.157C107.741 124.406 107.656 124.684 107.637 124.97C107.538 126.371 108.611 127.426 109.927 127.675C111.35 127.943 112.761 127.215 113.725 126.209C114.83 125.041 115.44 123.489 115.427 121.881C115.429 121.803 115.462 121.729 115.518 121.674C115.574 121.62 115.65 121.589 115.728 121.589C115.806 121.589 115.881 121.62 115.937 121.674C115.993 121.729 116.026 121.803 116.029 121.881Z" fill="#2F2E41"/>
<path d="M121.911 125.712C127.846 125.712 132.657 120.898 132.657 114.96C132.657 109.022 127.846 104.208 121.911 104.208C115.976 104.208 111.165 109.022 111.165 114.96C111.165 120.898 115.976 125.712 121.911 125.712Z" fill="#6C63FF"/>
<path d="M121.361 119.548L121.35 119.146C122.097 119.125 122.755 119.078 123.25 118.717C123.391 118.608 123.506 118.471 123.589 118.314C123.671 118.157 123.719 117.984 123.729 117.807C123.737 117.699 123.721 117.59 123.681 117.489C123.641 117.388 123.578 117.298 123.497 117.225C123.31 117.112 123.096 117.051 122.877 117.049C122.659 117.047 122.444 117.104 122.255 117.214L121.922 117.367L122.56 112.708L122.957 112.762L122.415 116.725C122.637 116.643 122.876 116.618 123.11 116.651C123.345 116.685 123.567 116.777 123.756 116.918C123.884 117.03 123.984 117.169 124.049 117.326C124.114 117.482 124.141 117.652 124.13 117.821C124.118 118.059 124.055 118.291 123.944 118.502C123.833 118.713 123.677 118.897 123.487 119.041C122.851 119.506 122.025 119.529 121.361 119.548Z" fill="#2F2E41"/>
<path d="M127.088 113.104H124.925V113.506H127.088V113.104Z" fill="#2F2E41"/>
<path d="M120.261 113.104H118.098V113.506H120.261V113.104Z" fill="#2F2E41"/>
<path d="M114.579 132.289C118.983 133.552 123.67 133.42 127.996 131.911C128.08 131.881 128.164 131.851 128.247 131.82C127.227 131.034 126.074 130.437 124.843 130.061C124.93 129.752 124.929 129.424 124.839 129.116C124.718 128.726 124.473 128.385 124.142 128.144C123.811 127.904 123.411 127.777 123.002 127.782H120.384C119.976 127.777 119.577 127.903 119.246 128.143C118.916 128.384 118.672 128.724 118.551 129.114C118.461 129.423 118.46 129.751 118.547 130.061C117.462 130.393 116.438 130.895 115.511 131.549C115.324 131.68 115.143 131.816 114.969 131.959C114.836 132.066 114.706 132.176 114.579 132.289Z" fill="#2F2E41"/>
<path d="M127.309 107.993C127.487 108.285 127.561 108.628 127.519 108.967C127.477 109.306 127.321 109.62 127.076 109.859C126.493 110.511 125.563 110.552 124.755 110.431C123.848 110.295 122.887 109.87 121.969 110.157C121.187 110.401 120.629 111.111 119.817 111.289C119.096 111.447 118.234 111.238 117.982 110.469C117.86 110.1 118.442 109.941 118.563 110.309C118.726 110.806 119.432 110.796 119.836 110.658C120.484 110.438 120.983 109.901 121.62 109.644C122.379 109.409 123.192 109.411 123.95 109.651C124.67 109.813 125.499 110.054 126.217 109.751C126.748 109.526 127.171 108.819 126.789 108.298C126.559 107.984 127.082 107.683 127.309 107.993Z" fill="#2F2E41"/>
<path d="M120.693 133.751C118.568 133.753 116.454 133.455 114.412 132.868C114.172 132.8 113.92 132.723 113.667 132.64C112.244 132.177 110.871 131.574 109.567 130.839C109.323 130.702 109.077 130.557 108.818 130.397C107.529 129.603 106.323 128.683 105.217 127.65C105.034 127.48 104.854 127.305 104.677 127.13C101.199 123.661 98.9404 119.156 98.24 114.292C97.5396 109.428 98.4355 104.469 100.793 100.158C103.15 95.8471 106.842 92.4182 111.313 90.3861C115.785 88.3541 120.795 87.8287 125.59 88.8889C130.385 89.9491 134.707 92.5377 137.907 96.2656C141.106 99.9936 143.01 104.66 143.333 109.563C143.656 114.466 142.38 119.342 139.696 123.458C137.013 127.573 133.068 130.707 128.453 132.387C128.37 132.417 128.284 132.448 128.198 132.478C125.786 133.324 123.249 133.754 120.693 133.751ZM120.693 89.5518C116.441 89.552 112.285 90.8147 108.75 93.1799C105.216 95.5451 102.462 98.9066 100.838 102.839C99.2139 106.771 98.7924 111.097 99.6268 115.268C100.461 119.44 102.514 123.271 105.525 126.275C105.692 126.439 105.865 126.606 106.039 126.769C107.086 127.748 108.229 128.619 109.449 129.37C109.695 129.522 109.927 129.658 110.157 129.788C111.392 130.484 112.693 131.055 114.04 131.494C114.279 131.572 114.514 131.644 114.742 131.708C119.027 132.939 123.587 132.811 127.797 131.342L128.04 131.254C132.787 129.525 136.773 126.179 139.299 121.801C141.824 117.424 142.728 112.297 141.851 107.319C140.974 102.342 138.373 97.8322 134.503 94.583C130.634 91.3338 125.744 89.5524 120.693 89.5518Z" fill="#CCCCCC"/>
<path d="M207.605 242.295H88.6888C87.1917 242.293 85.7563 241.697 84.6977 240.638C83.6391 239.579 83.0436 238.143 83.0419 236.645V75.1148C83.0436 73.6168 83.6391 72.1806 84.6977 71.1214C85.7563 70.0621 87.1917 69.4663 88.6888 69.4646H207.605C209.102 69.4663 210.537 70.0621 211.596 71.1214C212.655 72.1806 213.25 73.6168 213.252 75.1148V236.645C213.25 238.143 212.655 239.579 211.596 240.638C210.537 241.697 209.102 242.293 207.605 242.295ZM88.6888 70.1293C87.3678 70.1308 86.1013 70.6566 85.1673 71.5912C84.2332 72.5258 83.7078 73.793 83.7063 75.1148V236.645C83.7078 237.966 84.2332 239.234 85.1673 240.168C86.1013 241.103 87.3678 241.629 88.6888 241.63H207.605C208.926 241.629 210.192 241.103 211.126 240.168C212.06 239.234 212.586 237.966 212.587 236.645V75.1148C212.586 73.793 212.06 72.5258 211.126 71.5912C210.192 70.6566 208.926 70.1308 207.605 70.1293H88.6888Z" fill="#3F3D56"/>
<path d="M184.584 111.417H150.935C150.229 111.417 149.552 111.136 149.053 110.637C148.553 110.137 148.273 109.46 148.273 108.753C148.273 108.047 148.553 107.37 149.053 106.87C149.552 106.37 150.229 106.09 150.935 106.09H184.584C185.29 106.09 185.967 106.37 186.466 106.87C186.966 107.37 187.246 108.047 187.246 108.753C187.246 109.46 186.966 110.137 186.466 110.637C185.967 111.136 185.29 111.417 184.584 111.417Z" fill="#6C63FF"/>
<path d="M195.565 120.407H150.935C150.229 120.407 149.552 120.126 149.053 119.627C148.553 119.127 148.273 118.45 148.273 117.743C148.273 117.037 148.553 116.359 149.053 115.86C149.552 115.36 150.229 115.08 150.935 115.08H195.565C196.271 115.08 196.948 115.36 197.447 115.86C197.947 116.359 198.227 117.037 198.227 117.743C198.227 118.45 197.947 119.127 197.447 119.627C196.948 120.126 196.271 120.407 195.565 120.407Z" fill="#6C63FF"/>
<path d="M184.535 154.886H100.729C100.023 154.886 99.3455 154.605 98.8463 154.106C98.3471 153.606 98.0666 152.929 98.0666 152.222C98.0666 151.516 98.3471 150.839 98.8463 150.339C99.3455 149.839 100.023 149.559 100.729 149.559H184.535C185.241 149.559 185.918 149.839 186.417 150.339C186.917 150.839 187.197 151.516 187.197 152.222C187.197 152.929 186.917 153.606 186.417 154.106C185.918 154.605 185.241 154.886 184.535 154.886Z" fill="#CCCCCC"/>
<path d="M195.516 163.876H100.729C100.023 163.876 99.3455 163.595 98.8463 163.096C98.3471 162.596 98.0666 161.919 98.0666 161.212C98.0666 160.506 98.3471 159.828 98.8463 159.329C99.3455 158.829 100.023 158.549 100.729 158.549H195.516C196.222 158.549 196.899 158.829 197.398 159.329C197.898 159.828 198.178 160.506 198.178 161.212C198.178 161.919 197.898 162.596 197.398 163.096C196.899 163.595 196.222 163.876 195.516 163.876Z" fill="#CCCCCC"/>
<path d="M184.535 184.538H100.729C100.023 184.537 99.3469 184.256 98.8484 183.756C98.3499 183.257 98.0699 182.58 98.0699 181.874C98.0699 181.168 98.3499 180.491 98.8484 179.992C99.3469 179.492 100.023 179.211 100.729 179.21H184.535C185.241 179.21 185.918 179.491 186.417 179.991C186.917 180.49 187.197 181.168 187.197 181.874C187.197 182.58 186.917 183.258 186.417 183.757C185.918 184.257 185.241 184.538 184.535 184.538Z" fill="#CCCCCC"/>
<path d="M195.516 193.527H100.729C100.023 193.526 99.3469 193.245 98.8484 192.746C98.3499 192.247 98.0699 191.57 98.0699 190.864C98.0699 190.158 98.3499 189.481 98.8484 188.981C99.3469 188.482 100.023 188.201 100.729 188.2H195.516C196.222 188.2 196.899 188.481 197.398 188.98C197.898 189.48 198.178 190.157 198.178 190.864C198.178 191.57 197.898 192.248 197.398 192.747C196.899 193.247 196.222 193.527 195.516 193.527Z" fill="#CCCCCC"/>
<path d="M184.535 214.189H100.729C100.023 214.189 99.3455 213.908 98.8463 213.409C98.3471 212.909 98.0666 212.232 98.0666 211.525C98.0666 210.819 98.3471 210.142 98.8463 209.642C99.3455 209.143 100.023 208.862 100.729 208.862H184.535C185.241 208.862 185.918 209.143 186.417 209.642C186.917 210.142 187.197 210.819 187.197 211.525C187.197 212.232 186.917 212.909 186.417 213.409C185.918 213.908 185.241 214.189 184.535 214.189Z" fill="#CCCCCC"/>
<path d="M195.516 223.179H100.729C100.023 223.179 99.3455 222.898 98.8463 222.399C98.3471 221.899 98.0666 221.222 98.0666 220.515C98.0666 219.809 98.3471 219.131 98.8463 218.632C99.3455 218.132 100.023 217.852 100.729 217.852H195.516C196.222 217.852 196.899 218.132 197.398 218.632C197.898 219.131 198.178 219.809 198.178 220.515C198.178 221.222 197.898 221.899 197.398 222.399C196.899 222.898 196.222 223.179 195.516 223.179Z" fill="#CCCCCC"/>
<path d="M206.225 205.513C202.778 205.509 199.365 206.185 196.179 207.502C192.994 208.819 190.099 210.752 187.66 213.189C185.222 215.627 183.287 218.521 181.967 221.707C180.647 224.893 179.968 228.308 179.968 231.756C179.968 235.205 180.647 238.62 181.967 241.806C183.287 244.992 185.222 247.886 187.66 250.324C190.099 252.761 192.993 254.694 196.179 256.011C199.364 257.328 202.778 258.004 206.225 258C213.173 257.988 219.832 255.217 224.741 250.297C229.65 245.377 232.407 238.709 232.407 231.757C232.407 224.804 229.65 218.136 224.741 213.216C219.832 208.296 213.173 205.525 206.225 205.513Z" fill="#4BFF3B"/>
<path d="M203.736 242.656C203.046 242.657 202.374 242.433 201.821 242.019L201.787 241.993L194.574 236.472C193.901 235.955 193.46 235.19 193.349 234.347C193.238 233.505 193.466 232.652 193.983 231.978C194.5 231.303 195.263 230.861 196.106 230.749C196.948 230.638 197.8 230.865 198.475 231.382L203.147 234.967L214.186 220.555C214.442 220.221 214.761 219.941 215.126 219.73C215.49 219.52 215.892 219.383 216.309 219.328C216.726 219.273 217.15 219.3 217.557 219.409C217.963 219.518 218.344 219.706 218.678 219.962L218.679 219.962L218.611 220.058L218.681 219.962C219.355 220.481 219.795 221.245 219.906 222.088C220.018 222.93 219.79 223.783 219.274 224.458L206.289 241.401C205.988 241.791 205.602 242.107 205.16 242.324C204.718 242.541 204.232 242.653 203.739 242.652L203.736 242.656Z" fill="white"/>
</g>
<defs>
<clipPath id="clip0_111_87">
<rect width="285" height="258" fill="white"/>
</clipPath>
</defs>
</svg>
