<svg width="220" height="205" viewBox="0 0 220 205" fill="none" xmlns="http://www.w3.org/2000/svg">
<path d="M177.082 204.53H42.3931C39.9936 204.527 37.6931 203.575 35.9963 201.882C34.2995 200.189 33.3451 197.894 33.3424 195.5V41.9442C33.3451 39.5504 34.2995 37.2553 35.9963 35.5626C37.6931 33.8699 39.9936 32.9177 42.3931 32.915H177.082C179.482 32.9177 181.782 33.8699 183.479 35.5626C185.176 37.2553 186.13 39.5504 186.133 41.9442V195.5C186.13 197.894 185.176 200.189 183.479 201.882C181.782 203.575 179.482 204.527 177.082 204.53Z" fill="#E6E6E6"/>
<path d="M170.789 197.004H48.6868C46.5563 197.002 44.5137 196.156 43.0071 194.653C41.5006 193.151 40.6532 191.113 40.6508 188.987V48.4573C40.6532 46.3318 41.5006 44.2941 43.0071 42.7912C44.5137 41.2882 46.5563 40.4428 48.6868 40.4404H170.789C172.919 40.4428 174.962 41.2882 176.468 42.7912C177.975 44.2941 178.822 46.3318 178.825 48.4573V188.987C178.822 191.113 177.975 193.151 176.468 194.653C174.962 196.156 172.919 197.002 170.789 197.004Z" fill="white"/>
<path d="M165.931 60.4417H104.334C104.07 60.4421 103.809 60.3905 103.565 60.29C103.321 60.1894 103.099 60.0419 102.912 59.8557C102.725 59.6696 102.577 59.4485 102.476 59.2052C102.375 58.9619 102.323 58.701 102.323 58.4376C102.323 58.1742 102.375 57.9134 102.476 57.67C102.577 57.4267 102.725 57.2056 102.912 57.0195C103.099 56.8334 103.321 56.6858 103.565 56.5853C103.809 56.4847 104.07 56.4331 104.334 56.4335H165.931C166.195 56.4331 166.457 56.4847 166.701 56.5853C166.945 56.6858 167.167 56.8334 167.354 57.0195C167.54 57.2056 167.689 57.4267 167.79 57.67C167.891 57.9134 167.943 58.1742 167.943 58.4376C167.943 58.701 167.891 58.9619 167.79 59.2052C167.689 59.4485 167.54 59.6696 167.354 59.8557C167.167 60.0419 166.945 60.1894 166.701 60.29C166.457 60.3905 166.195 60.4421 165.931 60.4417Z" fill="#E4E4E4"/>
<path d="M165.931 68.3609H104.334C103.802 68.3609 103.291 68.1497 102.914 67.7738C102.537 67.398 102.325 66.8882 102.325 66.3567C102.325 65.8251 102.537 65.3154 102.914 64.9395C103.291 64.5636 103.802 64.3525 104.334 64.3525H165.931C166.464 64.3525 166.975 64.5636 167.352 64.9395C167.728 65.3154 167.94 65.8251 167.94 66.3567C167.94 66.8882 167.728 67.398 167.352 67.7738C166.975 68.1497 166.464 68.3609 165.931 68.3609Z" fill="#E4E4E4"/>
<path d="M131.035 76.28H104.334C103.802 76.28 103.291 76.0688 102.914 75.693C102.537 75.3171 102.325 74.8074 102.325 74.2758C102.325 73.7443 102.537 73.2345 102.914 72.8586C103.291 72.4828 103.802 72.2716 104.334 72.2716H131.035C131.568 72.2716 132.079 72.4828 132.456 72.8586C132.832 73.2345 133.044 73.7443 133.044 74.2758C133.044 74.8074 132.832 75.3171 132.456 75.693C132.079 76.0688 131.568 76.28 131.035 76.28Z" fill="#E4E4E4"/>
<path d="M158.503 108.264H61.2611C60.9971 108.265 60.7356 108.213 60.4915 108.113C60.2474 108.012 60.0256 107.865 59.8388 107.678C59.652 107.492 59.5037 107.271 59.4026 107.028C59.3014 106.785 59.2494 106.524 59.2494 106.26C59.2494 105.997 59.3014 105.736 59.4026 105.493C59.5037 105.249 59.652 105.028 59.8388 104.842C60.0256 104.656 60.2474 104.508 60.4915 104.408C60.7356 104.307 60.9971 104.256 61.2611 104.256H158.503C158.767 104.256 159.029 104.307 159.273 104.408C159.517 104.508 159.739 104.656 159.926 104.842C160.113 105.028 160.261 105.249 160.362 105.493C160.463 105.736 160.515 105.997 160.515 106.26C160.515 106.524 160.463 106.785 160.362 107.028C160.261 107.271 160.113 107.492 159.926 107.678C159.739 107.865 159.517 108.012 159.273 108.113C159.029 108.213 158.767 108.265 158.503 108.264Z" fill="#E4E4E4"/>
<path d="M158.503 116.184H61.2611C60.7283 116.184 60.2173 115.972 59.8406 115.596C59.4638 115.221 59.2521 114.711 59.2521 114.179C59.2521 113.648 59.4638 113.138 59.8406 112.762C60.2173 112.386 60.7283 112.175 61.2611 112.175H158.503C159.036 112.175 159.547 112.386 159.924 112.762C160.301 113.138 160.512 113.648 160.512 114.179C160.512 114.711 160.301 115.221 159.924 115.596C159.547 115.972 159.036 116.184 158.503 116.184Z" fill="#E4E4E4"/>
<path d="M158.503 134.16H61.2611C60.7283 134.16 60.2174 133.948 59.8406 133.573C59.4639 133.197 59.2523 132.687 59.2523 132.156C59.2523 131.624 59.4639 131.114 59.8406 130.738C60.2174 130.363 60.7283 130.151 61.2611 130.151H158.503C159.036 130.151 159.547 130.363 159.924 130.738C160.301 131.114 160.512 131.624 160.512 132.156C160.512 132.687 160.301 133.197 159.924 133.573C159.547 133.948 159.036 134.16 158.503 134.16Z" fill="#E4E4E4"/>
<path d="M158.503 142.079H61.2611C60.7283 142.079 60.2173 141.868 59.8406 141.492C59.4638 141.116 59.2521 140.606 59.2521 140.075C59.2521 139.543 59.4638 139.033 59.8406 138.657C60.2173 138.282 60.7283 138.07 61.2611 138.07H158.503C159.036 138.07 159.547 138.282 159.924 138.657C160.301 139.033 160.512 139.543 160.512 140.075C160.512 140.606 160.301 141.116 159.924 141.492C159.547 141.868 159.036 142.079 158.503 142.079Z" fill="#E4E4E4"/>
<path d="M158.503 160.055H61.2611C60.7283 160.055 60.2174 159.844 59.8406 159.468C59.4639 159.092 59.2523 158.582 59.2523 158.051C59.2523 157.519 59.4639 157.01 59.8406 156.634C60.2174 156.258 60.7283 156.047 61.2611 156.047H158.503C159.036 156.047 159.547 156.258 159.924 156.634C160.301 157.01 160.512 157.519 160.512 158.051C160.512 158.582 160.301 159.092 159.924 159.468C159.547 159.844 159.036 160.055 158.503 160.055Z" fill="#E4E4E4"/>
<path d="M158.503 167.974H61.2611C60.7283 167.974 60.2173 167.763 59.8406 167.387C59.4638 167.011 59.2521 166.501 59.2521 165.97C59.2521 165.438 59.4638 164.929 59.8406 164.553C60.2173 164.177 60.7283 163.966 61.2611 163.966H158.503C159.036 163.966 159.547 164.177 159.924 164.553C160.301 164.929 160.512 165.438 160.512 165.97C160.512 166.501 160.301 167.011 159.924 167.387C159.547 167.763 159.036 167.974 158.503 167.974Z" fill="#E4E4E4"/>
<path d="M158.486 189.91H131.785C131.253 189.91 130.742 189.699 130.365 189.323C129.988 188.947 129.776 188.437 129.776 187.906C129.776 187.374 129.988 186.864 130.365 186.489C130.742 186.113 131.253 185.902 131.785 185.902H158.486C159.019 185.902 159.53 186.113 159.907 186.489C160.283 186.864 160.495 187.374 160.495 187.906C160.495 188.437 160.283 188.947 159.907 189.323C159.53 189.699 159.019 189.91 158.486 189.91Z" fill="#6C63FF"/>
<path d="M87.2833 66.5914C87.2888 70.8954 85.8283 75.0735 83.1411 78.4408C82.272 79.5367 81.2825 80.5321 80.1911 81.4082C77.2128 83.8185 73.5739 85.2746 69.7515 85.5856C69.2312 85.6305 68.7066 85.651 68.178 85.651C67.1307 85.6512 66.0851 85.5651 65.052 85.3935C64.6875 85.3362 64.331 85.2667 63.9744 85.185C63.354 85.0472 62.7413 84.8767 62.1389 84.6741C60.1855 84.0255 58.3506 83.0647 56.706 81.8293C56.2676 81.5023 55.8457 81.1548 55.436 80.787C54.9349 80.3435 54.4601 79.8713 54.0142 79.3727C53.8954 79.2419 53.7765 79.107 53.6619 78.9722C51.6627 76.6379 50.2586 73.8562 49.569 70.8641C48.8794 67.8719 48.9248 64.7577 49.7013 61.7868C50.4779 58.8159 51.9625 56.0762 54.0289 53.8009C56.0953 51.5256 58.6822 49.7822 61.5693 48.719C64.4565 47.6558 67.5585 47.3044 70.6111 47.6947C73.6637 48.0849 76.5766 49.2053 79.1018 50.9604C81.6269 52.7155 83.6896 55.0534 85.1141 57.7749C86.5386 60.4965 87.2828 63.5211 87.2833 66.5914Z" fill="#E4E4E4"/>
<path d="M67.5131 73.096C71.8371 73.096 75.3423 69.5991 75.3423 65.2854C75.3423 60.9717 71.8371 57.4748 67.5131 57.4748C63.1891 57.4748 59.6838 60.9717 59.6838 65.2854C59.6838 69.5991 63.1891 73.096 67.5131 73.096Z" fill="#9E616A"/>
<path d="M76.2291 61.478C76.2646 60.7801 76.0672 60.0901 75.6678 59.5161L75.3851 59.1155C74.3648 57.1535 72.6809 55.3878 71.4478 54.0962C70.5217 53.1275 69.5959 52.6615 68.7066 52.7064C68.0595 52.7525 67.4571 53.0523 67.0309 53.5403C65.86 53.4689 64.6936 53.7399 63.6748 54.32C62.6559 54.9001 61.8289 55.7641 61.2949 56.8061C57.546 58.7803 58.6645 64.609 58.6767 64.6703L59.5824 66.1867L59.6848 65.9946C59.6848 65.9905 59.697 65.9742 59.7134 65.9415C59.8897 65.6267 60.8483 63.8773 61.4957 62.7696C61.732 62.3918 62.0463 62.0686 62.4176 61.8214C63.0239 61.4081 63.7209 61.1459 64.4498 61.057L66.441 60.7995L65.6871 61.9276H71.1117L73.1971 61.6824C73.4061 62.5367 75.0614 65.8515 75.262 66.2521L75.2784 66.2848L75.3891 66.5096L76.0078 64.8133C76.3691 63.7393 76.4454 62.5902 76.2291 61.478Z" fill="#2F2E41"/>
<path d="M56.7634 81.8701C57.0994 81.4286 58.8407 79.3686 62.8477 78.2773L64.9701 75.9188L73.4799 74.5659L77.8106 76.9529L83.141 78.4407C82.2719 79.5367 81.2824 80.5321 80.191 81.4082C77.2127 83.8185 73.5738 85.2746 69.7514 85.5855C69.2311 85.6305 68.7067 85.6509 68.1781 85.6509C67.1308 85.6512 66.0851 85.565 65.052 85.3934C64.6873 85.3362 64.3309 85.2667 63.9744 85.185C63.354 85.0472 62.7412 84.8767 62.1389 84.674C60.2076 84.0339 58.3924 83.0871 56.7634 81.8701C56.7429 81.8578 56.7265 81.8415 56.7061 81.8292L56.7634 81.8701Z" fill="#6C63FF"/>
<path d="M218.26 9.5599H1.21574C0.89341 9.55955 0.584389 9.43165 0.356471 9.20427C0.128553 8.9769 0.000351378 8.66861 0 8.34706V1.21283C0.000351378 0.891278 0.128553 0.582993 0.356471 0.355618C0.584389 0.128243 0.89341 0.00035054 1.21574 0H218.26C218.582 0.00035054 218.891 0.128243 219.119 0.355618C219.347 0.582993 219.475 0.891278 219.476 1.21283V8.34706C219.475 8.66861 219.347 8.9769 219.119 9.20427C218.891 9.43165 218.582 9.55955 218.26 9.5599Z" fill="#6C63FF"/>
<path d="M7.05541 6.15389C8.00867 6.15389 8.78145 5.38296 8.78145 4.43197C8.78145 3.48098 8.00867 2.71004 7.05541 2.71004C6.10215 2.71004 5.32938 3.48098 5.32938 4.43197C5.32938 5.38296 6.10215 6.15389 7.05541 6.15389Z" fill="white"/>
<path d="M13.6069 6.15389C14.5602 6.15389 15.3329 5.38296 15.3329 4.43197C15.3329 3.48098 14.5602 2.71004 13.6069 2.71004C12.6536 2.71004 11.8809 3.48098 11.8809 4.43197C11.8809 5.38296 12.6536 6.15389 13.6069 6.15389Z" fill="white"/>
<path d="M20.1587 6.15389C21.1119 6.15389 21.8847 5.38296 21.8847 4.43197C21.8847 3.48098 21.1119 2.71004 20.1587 2.71004C19.2054 2.71004 18.4326 3.48098 18.4326 4.43197C18.4326 5.38296 19.2054 6.15389 20.1587 6.15389Z" fill="white"/>
<path d="M211.841 3.24679H204.296C204.149 3.24553 204.008 3.18624 203.904 3.08182C203.801 2.97741 203.742 2.83633 203.742 2.68929C203.742 2.54225 203.801 2.40117 203.904 2.29675C204.008 2.19234 204.149 2.13304 204.296 2.13179H211.841C211.915 2.13116 211.988 2.14511 212.056 2.17285C212.124 2.20058 212.187 2.24155 212.239 2.29338C212.291 2.34521 212.333 2.40688 212.361 2.47483C212.39 2.54278 212.404 2.61567 212.404 2.68929C212.404 2.76291 212.39 2.83579 212.361 2.90374C212.333 2.9717 212.291 3.03337 212.239 3.0852C212.187 3.13703 212.124 3.178 212.056 3.20573C211.988 3.23347 211.915 3.24742 211.841 3.24679Z" fill="white"/>
<path d="M211.841 5.33741H204.297C204.148 5.33741 204.006 5.27868 203.901 5.17412C203.797 5.06957 203.738 4.92777 203.738 4.77991C203.738 4.63205 203.797 4.49025 203.901 4.3857C204.006 4.28115 204.148 4.22241 204.297 4.22241H211.841C211.915 4.22178 211.988 4.23573 212.056 4.26347C212.124 4.2912 212.187 4.33217 212.239 4.384C212.291 4.43583 212.333 4.4975 212.361 4.56545C212.39 4.63341 212.404 4.70629 212.404 4.77991C212.404 4.85353 212.39 4.92642 212.361 4.99437C212.333 5.06232 212.291 5.12399 212.239 5.17582C212.187 5.22766 212.124 5.26862 212.056 5.29636C211.988 5.32409 211.915 5.33804 211.841 5.33741Z" fill="white"/>
<path d="M211.841 7.42806H204.296C204.149 7.42687 204.008 7.3676 203.904 7.26318C203.8 7.15876 203.742 7.01764 203.742 6.87056C203.742 6.72348 203.8 6.58236 203.904 6.47793C204.008 6.37351 204.149 6.31425 204.296 6.31305H211.841C211.988 6.31425 212.129 6.37351 212.233 6.47793C212.337 6.58236 212.395 6.72348 212.395 6.87056C212.395 7.01764 212.337 7.15876 212.233 7.26318C212.129 7.3676 211.988 7.42687 211.841 7.42806Z" fill="white"/>
</svg>
