<svg width="150" height="189" viewBox="0 0 150 189" fill="none" xmlns="http://www.w3.org/2000/svg">
<path d="M124.563 172.83H5.64684C4.14972 172.829 2.71441 172.233 1.65578 171.174C0.597155 170.114 0.00168491 168.678 0 167.18V5.65022C0.00168491 4.15221 0.597155 2.71602 1.65578 1.65677C2.71441 0.597511 4.14972 0.00168591 5.64684 0H124.563C126.06 0.00168591 127.495 0.597511 128.554 1.65677C129.613 2.71602 130.208 4.15221 130.21 5.65022V167.18C130.208 168.678 129.613 170.114 128.554 171.174C127.495 172.233 126.06 172.829 124.563 172.83Z" fill="white"/>
<path d="M15.5648 41.5843C15.5609 44.493 16.1327 47.3738 17.2472 50.0603C18.3617 52.7468 19.9968 55.1859 22.0582 57.2369C22.2309 57.4076 22.4076 57.5784 22.5862 57.7452C23.6626 58.7514 24.8371 59.6472 26.092 60.4192C26.3329 60.5679 26.5739 60.7105 26.8209 60.8492C28.09 61.5648 29.4271 62.1523 30.8125 62.6031C31.0514 62.6814 31.2943 62.7558 31.5373 62.8241C35.9411 64.0878 40.628 63.9558 44.9539 62.4464C45.0382 62.4162 45.1225 62.3861 45.2048 62.356C49.0023 60.9736 52.3479 58.5754 54.8777 55.4224C57.4074 52.2694 59.0243 48.4825 59.5522 44.4738C60.0802 40.4652 59.499 36.3884 57.872 32.6873C56.245 28.9862 53.6345 25.8026 50.3246 23.4831C47.0148 21.1636 43.1324 19.797 39.1002 19.5321C35.068 19.2672 31.0404 20.1142 27.4559 21.9808C23.8713 23.8475 20.8673 26.6622 18.7706 30.1187C16.674 33.5752 15.5651 37.541 15.5648 41.5843Z" fill="white"/>
<path d="M32.987 52.4162C32.9977 54.1284 32.367 55.7824 31.2193 57.0523C30.0836 58.2994 28.393 59.1264 26.6869 58.7842C25.1159 58.4692 23.8393 57.0953 23.9986 55.4332C24.025 55.0732 24.1296 54.7233 24.305 54.4079C24.4804 54.0925 24.7225 53.8192 25.0143 53.607C25.3061 53.3947 25.6407 53.2488 25.9947 53.1792C26.3487 53.1096 26.7135 53.1181 27.0639 53.2041C28.5563 53.5917 29.1509 55.7438 27.9073 56.7539C27.6089 56.9963 27.1802 56.5724 27.4814 56.3278C27.6671 56.1578 27.8073 55.944 27.889 55.7058C27.9707 55.4677 27.9914 55.2128 27.9492 54.9645C27.907 54.7163 27.8033 54.4826 27.6474 54.2848C27.4916 54.0871 27.2887 53.9317 27.0572 53.8327C26.7841 53.7452 26.4947 53.7211 26.2109 53.762C25.9271 53.803 25.6563 53.9081 25.4191 54.0692C25.1819 54.2304 24.9844 54.4434 24.8416 54.6922C24.6988 54.941 24.6144 55.2191 24.5949 55.5054C24.4964 56.9065 25.5691 57.9617 26.8847 58.2102C28.3078 58.4789 29.7189 57.7501 30.6832 56.7441C31.7884 55.576 32.3982 54.0247 32.3846 52.4162C32.3872 52.3381 32.4201 52.264 32.4763 52.2096C32.5325 52.1552 32.6076 52.1248 32.6858 52.1248C32.764 52.1248 32.8391 52.1552 32.8953 52.2096C32.9515 52.264 32.9844 52.3381 32.987 52.4162Z" fill="#2F2E41"/>
<path d="M38.8688 56.2478C44.8036 56.2478 49.6147 51.4338 49.6147 45.4954C49.6147 39.5571 44.8036 34.7431 38.8688 34.7431C32.934 34.7431 28.1229 39.5571 28.1229 45.4954C28.1229 51.4338 32.934 56.2478 38.8688 56.2478Z" fill="#6C63FF"/>
<path d="M38.319 50.0833L38.3079 49.6815C39.0549 49.6607 39.7135 49.6138 40.2085 49.2521C40.3488 49.1437 40.4641 49.0063 40.5466 48.8493C40.6291 48.6923 40.6769 48.5194 40.6866 48.3423C40.6953 48.2341 40.679 48.1253 40.6388 48.0244C40.5987 47.9236 40.5358 47.8334 40.4551 47.7608C40.2682 47.6473 40.0541 47.5865 39.8354 47.5845C39.6168 47.5826 39.4017 47.6397 39.2127 47.7498L38.8804 47.9022L39.5176 43.2431L39.9154 43.2977L39.3735 47.2608C39.5953 47.1785 39.8343 47.153 40.0685 47.1867C40.3027 47.2204 40.5247 47.3123 40.7144 47.4539C40.8419 47.5653 40.9421 47.7048 41.0068 47.8613C41.0716 48.0179 41.0994 48.1873 41.0879 48.3564C41.0762 48.5944 41.0126 48.8269 40.9016 49.0376C40.7906 49.2484 40.6349 49.4323 40.4453 49.5766C39.8094 50.0415 38.9831 50.0647 38.319 50.0833Z" fill="#2F2E41"/>
<path d="M44.0458 43.6394H41.883V44.0412H44.0458V43.6394Z" fill="#2F2E41"/>
<path d="M37.219 43.6394H35.0563V44.0412H37.219V43.6394Z" fill="#2F2E41"/>
<path d="M31.5372 62.8241C35.9411 64.0878 40.628 63.9558 44.9538 62.4464C45.0382 62.4162 45.1225 62.3861 45.2048 62.356C44.1855 61.5692 43.0325 60.9729 41.8015 60.596C41.8885 60.2871 41.8871 59.9599 41.7974 59.6518C41.6756 59.2611 41.431 58.9202 41.0999 58.6799C40.7689 58.4395 40.3692 58.3125 39.9603 58.3177H37.342C36.9337 58.3122 36.5346 58.4389 36.2043 58.679C35.8739 58.919 35.6299 59.2596 35.5089 59.6497C35.4192 59.9586 35.4178 60.2864 35.5049 60.596C34.4205 60.9282 33.3957 61.4307 32.4689 62.0847C32.2822 62.2153 32.1015 62.3519 31.9269 62.4946C31.7943 62.6011 31.6638 62.7115 31.5372 62.8241Z" fill="#2F2E41"/>
<path d="M47.287 44.3548C47.287 46.1669 48.1785 47.6697 49.337 47.9309C49.455 47.9574 49.5755 47.9708 49.6964 47.9711C51.0236 47.9711 52.1059 46.3498 52.1059 44.3548C52.1358 43.3263 51.8079 42.3193 51.1782 41.5059C50.9824 41.2687 50.7414 41.0727 50.4694 40.9293C50.2307 40.8047 49.9656 40.7392 49.6964 40.7385C49.3266 40.743 48.9676 40.8639 48.6703 41.084C47.8532 41.6626 47.287 42.9102 47.287 44.3548Z" fill="#3F3D56"/>
<path d="M25.8029 44.3548C25.8029 45.9138 26.4614 47.2438 27.3851 47.7521C27.6379 47.8939 27.9225 47.9692 28.2123 47.9711C28.2768 47.9711 28.3412 47.9671 28.4051 47.959C29.6419 47.8124 30.6218 46.2533 30.6218 44.3548C30.6218 42.8339 29.9932 41.53 29.1058 40.9977C28.8374 40.8309 28.5283 40.7412 28.2123 40.7385C27.9431 40.7392 27.678 40.8047 27.4393 40.9293C27.1665 41.0734 26.925 41.2701 26.7285 41.5079C26.1006 42.3214 25.7735 43.3273 25.8029 44.3548Z" fill="#3F3D56"/>
<path d="M27.5353 47.4054C27.5831 47.4054 27.6303 47.3939 27.6728 47.3721C27.7153 47.3502 27.752 47.3185 27.7799 47.2797C27.8078 47.2408 27.826 47.1959 27.8331 47.1486C27.8402 47.1013 27.836 47.053 27.8208 47.0076C27.2451 45.2948 27.072 43.4724 27.3147 41.6817C27.5575 39.8911 28.2096 38.1807 29.2205 36.6832C30.2313 35.1858 31.5736 33.9418 33.1431 33.0478C34.7125 32.1539 36.4668 31.6341 38.2697 31.5288C40.0726 31.4236 41.8754 31.7357 43.5381 32.441C45.2008 33.1462 46.6786 34.2256 47.8566 35.5953C49.0346 36.9649 49.8812 38.5879 50.3304 40.3381C50.7796 42.0883 50.8194 43.9186 50.4468 45.6867C50.4305 45.7648 50.4458 45.8463 50.4895 45.9131C50.5331 45.9799 50.6014 46.0267 50.6795 46.0432C50.7575 46.0597 50.8389 46.0445 50.9058 46.001C50.9727 45.9575 51.0196 45.8892 51.0362 45.8111C51.4283 43.9521 51.3866 42.0278 50.9144 40.1875C50.4423 38.3473 49.5523 36.6408 48.3138 35.2007C47.0753 33.7606 45.5217 32.6256 43.7735 31.8841C42.0253 31.1425 40.1298 30.8144 38.2342 30.9251C36.3387 31.0358 34.4942 31.5824 32.8441 32.5224C31.194 33.4624 29.7828 34.7705 28.7202 36.345C27.6575 37.9195 26.9721 39.718 26.7171 41.6007C26.4621 43.4834 26.6444 45.3996 27.25 47.2003C27.2701 47.26 27.3085 47.312 27.3597 47.3488C27.4109 47.3856 27.4723 47.4054 27.5353 47.4054Z" fill="#3F3D56"/>
<path d="M44.267 38.5289C44.4453 38.8202 44.5194 39.1634 44.4771 39.5024C44.4349 39.8413 44.2787 40.1558 44.0344 40.3944C43.451 41.0464 42.5207 41.0875 41.713 40.9665C40.8066 40.8307 39.8451 40.4058 38.9275 40.6921C38.1453 40.9362 37.5874 41.646 36.7748 41.8243C36.0542 41.9824 35.1925 41.7731 34.9398 41.0046C34.8185 40.6353 35.3999 40.477 35.5207 40.8444C35.6841 41.3416 36.3898 41.3317 36.794 41.194C37.4419 40.9732 37.9412 40.4363 38.578 40.1799C39.3372 39.9447 40.15 39.9469 40.9078 40.1863C41.6283 40.3486 42.4575 40.5893 43.1752 40.2861C43.7063 40.0617 44.1289 39.3549 43.7469 38.8331C43.5175 38.5199 44.04 38.2189 44.267 38.5289Z" fill="#2F2E41"/>
<path d="M37.6512 64.2867C35.5265 64.2884 33.4122 63.9909 31.3703 63.4031C31.1304 63.3357 30.8783 63.2589 30.625 63.1759C29.2023 62.7125 27.8291 62.109 26.5254 61.3744C26.2809 61.2372 26.0354 61.0924 25.7759 60.9323C24.4871 60.139 23.2808 59.2188 22.1749 58.1855C21.9925 58.0152 21.8117 57.8404 21.6349 57.6658C18.1572 54.1963 15.8985 49.6913 15.1981 44.8276C14.4977 39.9639 15.3936 35.0041 17.751 30.6934C20.1084 26.3826 23.8001 22.9537 28.2716 20.9216C32.743 18.8896 37.7527 18.3642 42.548 19.4244C47.3433 20.4846 51.6653 23.0732 54.8648 26.8012C58.0643 30.5292 59.9684 35.1953 60.2911 40.0986C60.6138 45.0019 59.3377 49.8776 56.6544 53.9932C53.9712 58.1088 50.0257 61.2421 45.4108 62.9224C45.3279 62.9527 45.2422 62.9833 45.1564 63.0139C42.7444 63.859 40.2068 64.2894 37.6512 64.2867ZM37.6512 20.0873C33.3991 20.0875 29.2427 21.3502 25.7082 23.7154C22.1737 26.0806 19.4201 29.4421 17.7961 33.3742C16.172 37.3062 15.7505 41.6321 16.5849 45.804C17.4193 49.9759 19.4721 53.8062 22.4835 56.8101C22.6501 56.9748 22.8227 57.1415 22.9971 57.3045C24.0445 58.2831 25.187 59.1546 26.4076 59.9059C26.6535 60.0575 26.8848 60.194 27.1155 60.3235C28.3502 61.0194 29.651 61.591 30.9985 62.0298C31.2369 62.108 31.4725 62.1798 31.7002 62.2438C35.985 63.4741 40.5455 63.3462 44.7547 61.8776L44.9981 61.7899C49.7447 60.061 53.7309 56.7142 56.2566 52.337C58.7823 47.9598 59.686 42.8322 58.8091 37.8546C57.9322 32.8771 55.3307 28.3677 51.4615 25.1185C47.5922 21.8693 42.7026 20.088 37.6512 20.0873Z" fill="#CCCCCC"/>
<path d="M124.563 172.83H5.64684C4.14972 172.829 2.71441 172.233 1.65578 171.174C0.597155 170.114 0.00168491 168.678 0 167.18V5.65022C0.00168491 4.15221 0.597155 2.71602 1.65578 1.65677C2.71441 0.597511 4.14972 0.00168591 5.64684 0H124.563C126.06 0.00168591 127.495 0.597511 128.554 1.65677C129.613 2.71602 130.208 4.15221 130.21 5.65022V167.18C130.208 168.678 129.613 170.114 128.554 171.174C127.495 172.233 126.06 172.829 124.563 172.83ZM5.64684 0.66472C4.32585 0.666218 3.05941 1.19197 2.12533 2.1266C1.19126 3.06124 0.665832 4.32844 0.664336 5.65021V167.18C0.665832 168.502 1.19126 169.769 2.12533 170.704C3.05941 171.638 4.32585 172.164 5.64684 172.166H124.563C125.884 172.164 127.15 171.638 128.084 170.704C129.018 169.769 129.544 168.502 129.545 167.18V5.65022C129.544 4.32845 129.018 3.06124 128.084 2.1266C127.15 1.19196 125.884 0.666217 124.563 0.66472H5.64684Z" fill="#CCCCCC"/>
<path d="M101.542 41.9526H67.893C67.187 41.9526 66.5099 41.6719 66.0107 41.1724C65.5115 40.6729 65.231 39.9954 65.231 39.2889C65.231 38.5825 65.5115 37.905 66.0107 37.4055C66.5099 36.906 67.187 36.6253 67.893 36.6253H101.542C102.248 36.6253 102.925 36.906 103.425 37.4055C103.924 37.905 104.204 38.5825 104.204 39.2889C104.204 39.9954 103.924 40.6729 103.425 41.1724C102.925 41.6719 102.248 41.9526 101.542 41.9526Z" fill="#6C63FF"/>
<path d="M112.523 50.9423H67.893C67.187 50.9423 66.5099 50.6616 66.0107 50.1621C65.5115 49.6626 65.231 48.9851 65.231 48.2787C65.231 47.5722 65.5115 46.8947 66.0107 46.3952C66.5099 45.8957 67.187 45.615 67.893 45.615H112.523C113.229 45.615 113.906 45.8957 114.405 46.3952C114.905 46.8947 115.185 47.5722 115.185 48.2787C115.185 48.9851 114.905 49.6626 114.405 50.1621C113.906 50.6616 113.229 50.9423 112.523 50.9423Z" fill="#6C63FF"/>
<path d="M101.493 85.4215H17.6867C16.9807 85.4215 16.3036 85.1409 15.8043 84.6414C15.3051 84.1419 15.0247 83.4644 15.0247 82.7579C15.0247 82.0515 15.3051 81.374 15.8043 80.8745C16.3036 80.3749 16.9807 80.0943 17.6867 80.0943H101.493C102.199 80.0943 102.876 80.3749 103.375 80.8745C103.875 81.374 104.155 82.0515 104.155 82.7579C104.155 83.4644 103.875 84.1419 103.375 84.6414C102.876 85.1409 102.199 85.4215 101.493 85.4215Z" fill="#CCCCCC"/>
<path d="M112.474 94.4113H17.6867C16.9807 94.4113 16.3036 94.1306 15.8043 93.6311C15.3051 93.1316 15.0247 92.4541 15.0247 91.7476C15.0247 91.0412 15.3051 90.3637 15.8043 89.8642C16.3036 89.3647 16.9807 89.084 17.6867 89.084H112.474C113.18 89.084 113.857 89.3647 114.356 89.8642C114.856 90.3637 115.136 91.0412 115.136 91.7476C115.136 92.4541 114.856 93.1316 114.356 93.6311C113.857 94.1306 113.18 94.4113 112.474 94.4113Z" fill="#CCCCCC"/>
<path d="M101.493 115.073H17.6867C16.9812 115.072 16.305 114.791 15.8065 114.292C15.308 113.792 15.028 113.115 15.028 112.409C15.028 111.704 15.308 111.027 15.8065 110.527C16.305 110.028 16.9812 109.747 17.6867 109.746H101.493C102.199 109.746 102.876 110.026 103.376 110.526C103.875 111.026 104.155 111.703 104.155 112.409C104.155 113.116 103.875 113.793 103.376 114.293C102.876 114.792 102.199 115.073 101.493 115.073Z" fill="#CCCCCC"/>
<path d="M112.474 124.063H17.6867C16.9812 124.062 16.305 123.781 15.8065 123.281C15.308 122.782 15.028 122.105 15.028 121.399C15.028 120.693 15.308 120.016 15.8065 119.517C16.305 119.017 16.9812 118.736 17.6867 118.736H112.474C113.18 118.736 113.857 119.016 114.356 119.516C114.856 120.015 115.136 120.693 115.136 121.399C115.136 122.106 114.856 122.783 114.356 123.283C113.857 123.782 113.18 124.063 112.474 124.063Z" fill="#CCCCCC"/>
<path d="M101.493 144.725H17.6867C16.9807 144.725 16.3036 144.444 15.8043 143.944C15.3051 143.445 15.0247 142.767 15.0247 142.061C15.0247 141.355 15.3051 140.677 15.8043 140.178C16.3036 139.678 16.9807 139.397 17.6867 139.397H101.493C102.199 139.397 102.876 139.678 103.375 140.178C103.875 140.677 104.155 141.355 104.155 142.061C104.155 142.767 103.875 143.445 103.375 143.944C102.876 144.444 102.199 144.725 101.493 144.725Z" fill="#CCCCCC"/>
<path d="M112.474 153.714H17.6867C16.9807 153.714 16.3036 153.434 15.8043 152.934C15.3051 152.435 15.0247 151.757 15.0247 151.051C15.0247 150.344 15.3051 149.667 15.8043 149.167C16.3036 148.668 16.9807 148.387 17.6867 148.387H112.474C113.18 148.387 113.857 148.668 114.356 149.167C114.856 149.667 115.136 150.344 115.136 151.051C115.136 151.757 114.856 152.435 114.356 152.934C113.857 153.434 113.18 153.714 112.474 153.714Z" fill="#CCCCCC"/>
<path d="M123.183 136.049C119.736 136.045 116.323 136.721 113.137 138.038C109.952 139.355 107.057 141.287 104.618 143.725C102.18 146.162 100.245 149.056 98.9253 152.242C97.6054 155.428 96.926 158.843 96.926 162.292C96.926 165.741 97.6053 169.156 98.9252 172.342C100.245 175.528 102.18 178.422 104.618 180.859C107.057 183.297 109.952 185.229 113.137 186.546C116.322 187.863 119.736 188.539 123.183 188.535C130.131 188.523 136.79 185.753 141.699 180.833C146.608 175.912 149.365 169.244 149.365 162.292C149.365 155.34 146.608 148.672 141.699 143.751C136.79 138.831 130.131 136.061 123.183 136.049Z" fill="#61FF00"/>
<path d="M120.694 173.191C120.004 173.192 119.332 172.969 118.78 172.554L118.745 172.529L111.533 167.008C110.859 166.49 110.418 165.726 110.307 164.883C110.196 164.04 110.424 163.188 110.941 162.513C111.458 161.838 112.222 161.397 113.064 161.285C113.906 161.173 114.758 161.401 115.433 161.917L120.105 165.502L131.144 151.091C131.4 150.757 131.72 150.476 132.084 150.266C132.448 150.055 132.85 149.918 133.267 149.863C133.685 149.808 134.108 149.836 134.515 149.944C134.921 150.053 135.302 150.241 135.636 150.497L135.637 150.498L135.569 150.593L135.639 150.498C136.313 151.016 136.753 151.78 136.865 152.623C136.976 153.466 136.748 154.318 136.232 154.993L123.247 171.936C122.946 172.327 122.56 172.643 122.118 172.86C121.676 173.077 121.19 173.189 120.697 173.187L120.694 173.191Z" fill="white"/>
</svg>
