<svg width="25" height="25" viewBox="0 0 25 25" fill="none" xmlns="http://www.w3.org/2000/svg">
<path d="M18.2789 8.81219C19.9358 8.81219 21.2789 7.46905 21.2789 5.81219C21.2789 4.15534 19.9358 2.81219 18.2789 2.81219C16.622 2.81219 15.2789 4.15534 15.2789 5.81219C15.2789 7.46905 16.622 8.81219 18.2789 8.81219Z" stroke="#4C64D9" stroke-width="2" stroke-linecap="round" stroke-linejoin="round"/>
<path d="M6.2789 15.8122C7.93575 15.8122 9.2789 14.469 9.2789 12.8122C9.2789 11.1553 7.93575 9.81219 6.2789 9.81219C4.62205 9.81219 3.2789 11.1553 3.2789 12.8122C3.2789 14.469 4.62205 15.8122 6.2789 15.8122Z" stroke="#4C64D9" stroke-width="2" stroke-linecap="round" stroke-linejoin="round"/>
<path d="M18.2789 22.8122C19.9358 22.8122 21.2789 21.469 21.2789 19.8122C21.2789 18.1553 19.9358 16.8122 18.2789 16.8122C16.622 16.8122 15.2789 18.1553 15.2789 19.8122C15.2789 21.469 16.622 22.8122 18.2789 22.8122Z" stroke="#4C64D9" stroke-width="2" stroke-linecap="round" stroke-linejoin="round"/>
<path d="M8.8689 14.3222L15.6989 18.3022" stroke="#4C64D9" stroke-width="2" stroke-linecap="round" stroke-linejoin="round"/>
<path d="M15.6889 7.3222L8.8689 11.3022" stroke="#4C64D9" stroke-width="2" stroke-linecap="round" stroke-linejoin="round"/>
</svg>
