<svg width="90" height="90" viewBox="0 0 90 90" fill="none" xmlns="http://www.w3.org/2000/svg">
<path d="M22.2422 9L27.5684 28.2363V37.4648H32.1797V28.2363L37.5762 9H32.9297L30.9961 17.7539C30.4531 20.3099 30.1063 22.126 29.9473 23.209H29.8066C29.5816 21.694 29.2318 19.8637 28.7578 17.7188L26.8945 9H22.2422ZM42.9551 16.2598C41.3921 16.2598 40.1299 16.5674 39.1699 17.1914C38.2069 17.8124 37.5018 18.8061 37.0488 20.1621C36.5988 21.5211 36.3691 23.3147 36.3691 25.5527V28.5703C36.3691 30.7843 36.5708 32.5615 36.9668 33.8965C37.3628 35.2315 38.0258 36.2166 38.9648 36.8496C39.9038 37.4826 41.1996 37.8017 42.8496 37.8047C44.4546 37.8047 45.7339 37.4912 46.6699 36.8672C47.6059 36.2432 48.2861 35.2669 48.7031 33.9199C49.1201 32.5729 49.3301 30.7932 49.3301 28.5762V25.5527C49.3301 23.3147 49.1145 21.5267 48.6855 20.1797C48.2565 18.8357 47.5823 17.842 46.6523 17.209C45.7253 16.576 44.4911 16.2598 42.9551 16.2598ZM51.7559 16.6699V32.2031C51.7559 34.1261 52.0862 35.5423 52.7402 36.4453C53.3972 37.3483 54.413 37.7988 55.793 37.7988C57.782 37.7988 59.2765 36.839 60.2695 34.916H60.3691L60.7793 37.459H64.4414V16.6699H59.7656V33.1816C59.5856 33.5686 59.3086 33.8877 58.9336 34.1367C58.5586 34.3887 58.1697 34.5117 57.7617 34.5117C57.2847 34.5117 56.9462 34.3101 56.7422 33.9141C56.5382 33.5181 56.4375 32.8636 56.4375 31.9336V16.6699H51.7559ZM42.8496 19.4824C43.5036 19.4824 43.9686 19.8295 44.2266 20.5195C44.4876 21.2065 44.6133 22.2951 44.6133 23.7891V30.2695C44.6133 31.8085 44.4846 32.9138 44.2266 33.5918C43.9686 34.2698 43.5065 34.6083 42.8555 34.6113C42.2015 34.6113 41.7451 34.2698 41.4961 33.5918C41.2441 32.9138 41.1211 31.8055 41.1211 30.2695V23.7891C41.1211 22.2981 41.2557 21.2095 41.5137 20.5195C41.7717 19.8325 42.2166 19.4824 42.8496 19.4824ZM19.5 41.7012C15.357 41.7012 12 45.0582 12 49.2012V73.2012C12 77.3442 15.357 80.7012 19.5 80.7012H70.5C74.643 80.7012 78 77.3442 78 73.2012V49.2012C78 45.0582 74.643 41.7012 70.5 41.7012H19.5ZM45.1758 48.5977H48.9844V57.8496H49.0137C49.3557 57.1806 49.8427 56.6434 50.4727 56.2324C51.1027 55.8214 51.7857 55.6172 52.5117 55.6172C53.4477 55.6172 54.178 55.8663 54.709 56.3613C55.24 56.8563 55.6321 57.6625 55.8691 58.7695C56.1061 59.8795 56.2266 61.4159 56.2266 63.3809V66.1523C56.2266 68.7683 55.9132 70.6908 55.2832 71.9238C54.6532 73.1568 53.6651 73.7754 52.3301 73.7754C51.5861 73.7754 50.9089 73.6018 50.2969 73.2598C49.6849 72.9178 49.2318 72.4475 48.9258 71.8535H48.8379L48.4395 73.5117H45.1758V48.5977ZM21.5508 49.4883H33.2637V52.6699H29.3379V73.5117H25.4707V52.6699H21.5508V49.4883ZM63.3516 55.6289C64.7046 55.6289 65.7486 55.8722 66.4746 56.3672C67.1976 56.8652 67.7128 57.6405 68.0098 58.6875C68.3038 59.7375 68.4492 61.19 68.4492 63.041V66.0527H61.8398V66.9434C61.8398 68.0714 61.8705 68.9136 61.9395 69.4746C62.0085 70.0356 62.1455 70.4501 62.3555 70.7051C62.5655 70.9631 62.8901 71.0918 63.3281 71.0918C63.9191 71.0918 64.3249 70.8622 64.5469 70.4062C64.7659 69.9503 64.8863 69.1832 64.9043 68.1152L68.3086 68.3145C68.3266 68.4645 68.3379 68.6803 68.3379 68.9473C68.3379 70.5703 67.8958 71.7821 67.0078 72.5801C66.1198 73.3841 64.8632 73.7871 63.2402 73.7871C61.2932 73.7871 59.9305 73.1741 59.1445 71.9531C58.3585 70.7321 57.9727 68.8402 57.9727 66.2812V63.2168C57.9727 60.5828 58.3814 58.6603 59.1914 57.4453C60.0014 56.2303 61.3866 55.6289 63.3516 55.6289ZM38.8477 55.9512H42.8027V73.5059H42.791V73.5117H39.6973L39.3574 71.3613H39.2695C38.4295 72.9873 37.1702 73.7988 35.4902 73.7988C34.3232 73.7988 33.4671 73.4212 32.9121 72.6562C32.3571 71.8942 32.0801 70.6962 32.0801 69.0762V55.957H36.041V68.8477C36.041 69.6277 36.1278 70.1934 36.2988 70.5234C36.4728 70.8594 36.7552 71.0215 37.1602 71.0215C37.5022 71.0215 37.8295 70.9181 38.1445 70.7051C38.4625 70.4951 38.6917 70.2263 38.8477 69.9023V55.9512ZM63.2695 58.2949C62.8495 58.2949 62.533 58.4181 62.332 58.6641C62.131 58.9131 61.9966 59.3188 61.9336 59.8828C61.8646 60.4438 61.834 61.3004 61.834 62.4434V63.7031H64.7227V62.4434C64.7227 61.3154 64.6863 60.4648 64.6113 59.8828C64.5363 59.2978 64.4022 58.8923 64.2012 58.6523C64.0002 58.4153 63.6925 58.2949 63.2695 58.2949ZM50.7305 58.4238C50.3495 58.4238 49.9939 58.5749 49.6699 58.8809C49.3459 59.1869 49.1164 59.5787 48.9844 60.0527V70.0195C49.1584 70.3255 49.3822 70.5521 49.6582 70.7051C49.9342 70.8551 50.2335 70.9395 50.5605 70.9395C50.9805 70.9395 51.3135 70.7884 51.5625 70.4824C51.8115 70.1764 51.9878 69.6615 52.0898 68.9355C52.1948 68.2125 52.248 67.2077 52.248 65.9297V63.668C52.248 62.294 52.2061 61.2333 52.1191 60.4863C52.0351 59.7423 51.8781 59.2104 51.6621 58.8984C51.4431 58.5864 51.1355 58.4238 50.7305 58.4238Z" fill="white"/>
</svg>
